G04 MADE WITH FRITZING*
G04 WWW.FRITZING.ORG*
G04 DOUBLE SIDED*
G04 HOLES PLATED*
G04 CONTOUR ON CENTER OF CONTOUR VECTOR*
%ASAXBY*%
%FSLAX23Y23*%
%MOIN*%
%OFA0B0*%
%SFA1.0B1.0*%
%ADD10C,0.070000*%
%ADD11C,0.074000*%
%ADD12C,0.071181*%
%ADD13C,0.080000*%
%ADD14R,0.069972X0.070000*%
%ADD15R,0.080000X0.080000*%
%ADD16C,0.024000*%
%LNCOPPER1*%
G90*
G70*
G54D10*
X111Y1678D03*
X111Y1578D03*
X111Y1478D03*
X111Y1378D03*
X111Y1278D03*
X111Y1178D03*
X111Y1078D03*
X111Y978D03*
X111Y878D03*
X111Y778D03*
X111Y678D03*
X111Y578D03*
X111Y478D03*
X111Y378D03*
X111Y278D03*
X711Y1678D03*
X711Y1578D03*
X711Y1478D03*
X711Y1378D03*
X711Y1278D03*
X711Y1178D03*
X711Y1078D03*
X711Y978D03*
X711Y878D03*
X711Y778D03*
X711Y678D03*
X711Y578D03*
X711Y478D03*
X711Y378D03*
X711Y278D03*
G54D11*
X2711Y2078D03*
X2711Y1978D03*
X2711Y1878D03*
X2711Y1778D03*
X2711Y1678D03*
X2711Y1578D03*
G54D12*
X2211Y478D03*
X1611Y478D03*
X1611Y178D03*
X2311Y178D03*
X2011Y178D03*
X2211Y478D03*
X1611Y478D03*
X1611Y178D03*
X2311Y178D03*
X2011Y178D03*
G54D13*
X2954Y1021D03*
X2954Y821D03*
X2954Y621D03*
X2954Y1221D03*
G54D14*
X111Y1678D03*
G54D15*
X2954Y1221D03*
G54D16*
X314Y1777D02*
X314Y578D01*
D02*
X2615Y1881D02*
X411Y1881D01*
D02*
X411Y1881D02*
X314Y1777D01*
D02*
X508Y1680D02*
X508Y578D01*
D02*
X508Y578D02*
X137Y391D01*
D02*
X612Y1777D02*
X508Y1680D01*
D02*
X2689Y1700D02*
X2615Y1777D01*
D02*
X2615Y1777D02*
X612Y1777D01*
D02*
X314Y578D02*
X137Y491D01*
D02*
X2690Y1800D02*
X2615Y1881D01*
G04 End of Copper1*
M02*