G04 MADE WITH FRITZING*
G04 WWW.FRITZING.ORG*
G04 DOUBLE SIDED*
G04 HOLES PLATED*
G04 CONTOUR ON CENTER OF CONTOUR VECTOR*
%ASAXBY*%
%FSLAX23Y23*%
%MOIN*%
%OFA0B0*%
%SFA1.0B1.0*%
%ADD10R,3.333330X2.222220X3.317330X2.206220*%
%ADD11C,0.008000*%
%ADD12C,0.010417*%
%ADD13R,0.001000X0.001000*%
%LNSILK1*%
G90*
G70*
G54D11*
X4Y2218D02*
X3329Y2218D01*
X3329Y4D01*
X4Y4D01*
X4Y2218D01*
D02*
X1327Y2078D02*
X1260Y2078D01*
D02*
X1327Y1558D02*
X1260Y1558D01*
D02*
X2032Y2078D02*
X2032Y2039D01*
D02*
X2032Y2078D02*
X1992Y2078D01*
D02*
X2032Y1558D02*
X2032Y1598D01*
D02*
X2032Y1558D02*
X1992Y1558D01*
D02*
X1016Y1558D02*
X1016Y1598D01*
D02*
X1016Y1558D02*
X1055Y1558D01*
D02*
X1016Y2078D02*
X1016Y2039D01*
D02*
X1016Y2078D02*
X1055Y2078D01*
D02*
X1561Y128D02*
X1561Y528D01*
D02*
X1561Y528D02*
X2361Y528D01*
D02*
X2361Y528D02*
X2361Y128D01*
D02*
X2361Y128D02*
X1561Y128D01*
G54D12*
D02*
X2899Y1326D02*
X2899Y516D01*
D02*
X2899Y516D02*
X3295Y516D01*
D02*
X3295Y516D02*
X3295Y1326D01*
D02*
X3295Y1326D02*
X2899Y1326D01*
D02*
X3152Y516D02*
X3152Y1326D01*
G54D11*
X65Y132D02*
X757Y132D01*
X757Y1824D01*
X65Y1824D01*
X65Y132D01*
D02*
X1015Y1507D02*
X1015Y2149D01*
X2757Y2149D01*
X2757Y1507D01*
X1015Y1507D01*
D02*
G54D13*
X1010Y1466D02*
X1026Y1466D01*
X1064Y1466D02*
X1084Y1466D01*
X1110Y1466D02*
X1126Y1466D01*
X1209Y1466D02*
X1242Y1466D01*
X1259Y1466D02*
X1290Y1466D01*
X1325Y1466D02*
X1340Y1466D01*
X1361Y1466D02*
X1363Y1466D01*
X1389Y1466D02*
X1391Y1466D01*
X1465Y1466D02*
X1486Y1466D01*
X1512Y1466D02*
X1514Y1466D01*
X1539Y1466D02*
X1541Y1466D01*
X1612Y1466D02*
X1614Y1466D01*
X1640Y1466D02*
X1642Y1466D01*
X1676Y1466D02*
X1692Y1466D01*
X1766Y1466D02*
X1789Y1466D01*
X1820Y1466D02*
X1836Y1466D01*
X1911Y1466D02*
X1934Y1466D01*
X1967Y1466D02*
X1979Y1466D01*
X2315Y1466D02*
X2317Y1466D01*
X2417Y1466D02*
X2419Y1466D01*
X2519Y1466D02*
X2542Y1466D01*
X2614Y1466D02*
X2637Y1466D01*
X2667Y1466D02*
X2668Y1466D01*
X2715Y1466D02*
X2746Y1466D01*
X1009Y1465D02*
X1028Y1465D01*
X1061Y1465D02*
X1087Y1465D01*
X1109Y1465D02*
X1128Y1465D01*
X1209Y1465D02*
X1242Y1465D01*
X1259Y1465D02*
X1291Y1465D01*
X1322Y1465D02*
X1342Y1465D01*
X1360Y1465D02*
X1364Y1465D01*
X1388Y1465D02*
X1392Y1465D01*
X1463Y1465D02*
X1488Y1465D01*
X1511Y1465D02*
X1515Y1465D01*
X1538Y1465D02*
X1542Y1465D01*
X1611Y1465D02*
X1615Y1465D01*
X1639Y1465D02*
X1643Y1465D01*
X1673Y1465D02*
X1693Y1465D01*
X1764Y1465D02*
X1791Y1465D01*
X1819Y1465D02*
X1837Y1465D01*
X1911Y1465D02*
X1937Y1465D01*
X1966Y1465D02*
X1980Y1465D01*
X2314Y1465D02*
X2318Y1465D01*
X2416Y1465D02*
X2420Y1465D01*
X2517Y1465D02*
X2544Y1465D01*
X2614Y1465D02*
X2640Y1465D01*
X2665Y1465D02*
X2670Y1465D01*
X2715Y1465D02*
X2747Y1465D01*
X1008Y1464D02*
X1029Y1464D01*
X1060Y1464D02*
X1088Y1464D01*
X1108Y1464D02*
X1130Y1464D01*
X1209Y1464D02*
X1242Y1464D01*
X1259Y1464D02*
X1292Y1464D01*
X1321Y1464D02*
X1342Y1464D01*
X1359Y1464D02*
X1365Y1464D01*
X1387Y1464D02*
X1392Y1464D01*
X1462Y1464D02*
X1490Y1464D01*
X1510Y1464D02*
X1516Y1464D01*
X1538Y1464D02*
X1543Y1464D01*
X1610Y1464D02*
X1616Y1464D01*
X1638Y1464D02*
X1643Y1464D01*
X1672Y1464D02*
X1694Y1464D01*
X1763Y1464D02*
X1792Y1464D01*
X1818Y1464D02*
X1837Y1464D01*
X1911Y1464D02*
X1939Y1464D01*
X1965Y1464D02*
X1981Y1464D01*
X2313Y1464D02*
X2319Y1464D01*
X2415Y1464D02*
X2421Y1464D01*
X2516Y1464D02*
X2545Y1464D01*
X2614Y1464D02*
X2641Y1464D01*
X2665Y1464D02*
X2670Y1464D01*
X2715Y1464D02*
X2748Y1464D01*
X1008Y1463D02*
X1031Y1463D01*
X1059Y1463D02*
X1089Y1463D01*
X1108Y1463D02*
X1131Y1463D01*
X1209Y1463D02*
X1242Y1463D01*
X1259Y1463D02*
X1292Y1463D01*
X1319Y1463D02*
X1342Y1463D01*
X1359Y1463D02*
X1365Y1463D01*
X1387Y1463D02*
X1393Y1463D01*
X1461Y1463D02*
X1491Y1463D01*
X1510Y1463D02*
X1516Y1463D01*
X1537Y1463D02*
X1543Y1463D01*
X1610Y1463D02*
X1616Y1463D01*
X1638Y1463D02*
X1644Y1463D01*
X1671Y1463D02*
X1694Y1463D01*
X1762Y1463D02*
X1793Y1463D01*
X1818Y1463D02*
X1837Y1463D01*
X1911Y1463D02*
X1940Y1463D01*
X1965Y1463D02*
X1981Y1463D01*
X2121Y1463D02*
X2123Y1463D01*
X2272Y1463D02*
X2274Y1463D01*
X2313Y1463D02*
X2319Y1463D01*
X2415Y1463D02*
X2421Y1463D01*
X2515Y1463D02*
X2546Y1463D01*
X2614Y1463D02*
X2643Y1463D01*
X2664Y1463D02*
X2670Y1463D01*
X2715Y1463D02*
X2748Y1463D01*
X1008Y1462D02*
X1031Y1462D01*
X1059Y1462D02*
X1090Y1462D01*
X1108Y1462D02*
X1132Y1462D01*
X1209Y1462D02*
X1242Y1462D01*
X1259Y1462D02*
X1292Y1462D01*
X1319Y1462D02*
X1342Y1462D01*
X1359Y1462D02*
X1365Y1462D01*
X1387Y1462D02*
X1393Y1462D01*
X1460Y1462D02*
X1492Y1462D01*
X1510Y1462D02*
X1516Y1462D01*
X1537Y1462D02*
X1543Y1462D01*
X1610Y1462D02*
X1616Y1462D01*
X1638Y1462D02*
X1644Y1462D01*
X1670Y1462D02*
X1694Y1462D01*
X1761Y1462D02*
X1794Y1462D01*
X1818Y1462D02*
X1838Y1462D01*
X1911Y1462D02*
X1941Y1462D01*
X1965Y1462D02*
X1981Y1462D01*
X2120Y1462D02*
X2124Y1462D01*
X2270Y1462D02*
X2275Y1462D01*
X2313Y1462D02*
X2319Y1462D01*
X2415Y1462D02*
X2421Y1462D01*
X2514Y1462D02*
X2547Y1462D01*
X2614Y1462D02*
X2644Y1462D01*
X2664Y1462D02*
X2670Y1462D01*
X2715Y1462D02*
X2748Y1462D01*
X1008Y1461D02*
X1032Y1461D01*
X1058Y1461D02*
X1091Y1461D01*
X1109Y1461D02*
X1133Y1461D01*
X1209Y1461D02*
X1242Y1461D01*
X1259Y1461D02*
X1292Y1461D01*
X1318Y1461D02*
X1342Y1461D01*
X1359Y1461D02*
X1365Y1461D01*
X1387Y1461D02*
X1393Y1461D01*
X1460Y1461D02*
X1492Y1461D01*
X1510Y1461D02*
X1516Y1461D01*
X1537Y1461D02*
X1543Y1461D01*
X1610Y1461D02*
X1616Y1461D01*
X1638Y1461D02*
X1644Y1461D01*
X1669Y1461D02*
X1693Y1461D01*
X1761Y1461D02*
X1794Y1461D01*
X1818Y1461D02*
X1838Y1461D01*
X1911Y1461D02*
X1942Y1461D01*
X1966Y1461D02*
X1981Y1461D01*
X2119Y1461D02*
X2125Y1461D01*
X2270Y1461D02*
X2275Y1461D01*
X2313Y1461D02*
X2319Y1461D01*
X2415Y1461D02*
X2421Y1461D01*
X2514Y1461D02*
X2547Y1461D01*
X2614Y1461D02*
X2645Y1461D01*
X2664Y1461D02*
X2670Y1461D01*
X2715Y1461D02*
X2748Y1461D01*
X1009Y1460D02*
X1033Y1460D01*
X1058Y1460D02*
X1091Y1460D01*
X1110Y1460D02*
X1133Y1460D01*
X1209Y1460D02*
X1242Y1460D01*
X1259Y1460D02*
X1291Y1460D01*
X1317Y1460D02*
X1341Y1460D01*
X1359Y1460D02*
X1365Y1460D01*
X1387Y1460D02*
X1393Y1460D01*
X1460Y1460D02*
X1493Y1460D01*
X1510Y1460D02*
X1516Y1460D01*
X1537Y1460D02*
X1543Y1460D01*
X1610Y1460D02*
X1616Y1460D01*
X1638Y1460D02*
X1644Y1460D01*
X1669Y1460D02*
X1692Y1460D01*
X1761Y1460D02*
X1794Y1460D01*
X1818Y1460D02*
X1838Y1460D01*
X1911Y1460D02*
X1943Y1460D01*
X1967Y1460D02*
X1981Y1460D01*
X2119Y1460D02*
X2125Y1460D01*
X2270Y1460D02*
X2276Y1460D01*
X2313Y1460D02*
X2319Y1460D01*
X2415Y1460D02*
X2421Y1460D01*
X2438Y1460D02*
X2440Y1460D01*
X2514Y1460D02*
X2547Y1460D01*
X2614Y1460D02*
X2645Y1460D01*
X2664Y1460D02*
X2670Y1460D01*
X2715Y1460D02*
X2747Y1460D01*
X1015Y1459D02*
X1021Y1459D01*
X1026Y1459D02*
X1033Y1459D01*
X1058Y1459D02*
X1064Y1459D01*
X1084Y1459D02*
X1091Y1459D01*
X1115Y1459D02*
X1121Y1459D01*
X1126Y1459D02*
X1134Y1459D01*
X1209Y1459D02*
X1215Y1459D01*
X1222Y1459D02*
X1228Y1459D01*
X1236Y1459D02*
X1242Y1459D01*
X1259Y1459D02*
X1265Y1459D01*
X1317Y1459D02*
X1325Y1459D01*
X1359Y1459D02*
X1365Y1459D01*
X1387Y1459D02*
X1393Y1459D01*
X1460Y1459D02*
X1466Y1459D01*
X1486Y1459D02*
X1493Y1459D01*
X1510Y1459D02*
X1516Y1459D01*
X1537Y1459D02*
X1543Y1459D01*
X1610Y1459D02*
X1616Y1459D01*
X1638Y1459D02*
X1644Y1459D01*
X1668Y1459D02*
X1676Y1459D01*
X1761Y1459D02*
X1767Y1459D01*
X1788Y1459D02*
X1794Y1459D01*
X1818Y1459D02*
X1824Y1459D01*
X1831Y1459D02*
X1838Y1459D01*
X1911Y1459D02*
X1917Y1459D01*
X1934Y1459D02*
X1943Y1459D01*
X1975Y1459D02*
X1981Y1459D01*
X2119Y1459D02*
X2125Y1459D01*
X2270Y1459D02*
X2276Y1459D01*
X2313Y1459D02*
X2319Y1459D01*
X2415Y1459D02*
X2421Y1459D01*
X2436Y1459D02*
X2441Y1459D01*
X2514Y1459D02*
X2520Y1459D01*
X2541Y1459D02*
X2547Y1459D01*
X2614Y1459D02*
X2620Y1459D01*
X2637Y1459D02*
X2646Y1459D01*
X2664Y1459D02*
X2670Y1459D01*
X2715Y1459D02*
X2721Y1459D01*
X1015Y1458D02*
X1021Y1458D01*
X1027Y1458D02*
X1034Y1458D01*
X1058Y1458D02*
X1064Y1458D01*
X1085Y1458D02*
X1091Y1458D01*
X1115Y1458D02*
X1121Y1458D01*
X1127Y1458D02*
X1134Y1458D01*
X1209Y1458D02*
X1215Y1458D01*
X1222Y1458D02*
X1228Y1458D01*
X1236Y1458D02*
X1242Y1458D01*
X1259Y1458D02*
X1265Y1458D01*
X1316Y1458D02*
X1323Y1458D01*
X1359Y1458D02*
X1365Y1458D01*
X1387Y1458D02*
X1393Y1458D01*
X1460Y1458D02*
X1466Y1458D01*
X1487Y1458D02*
X1493Y1458D01*
X1510Y1458D02*
X1516Y1458D01*
X1537Y1458D02*
X1543Y1458D01*
X1610Y1458D02*
X1616Y1458D01*
X1638Y1458D02*
X1644Y1458D01*
X1668Y1458D02*
X1675Y1458D01*
X1761Y1458D02*
X1767Y1458D01*
X1788Y1458D02*
X1794Y1458D01*
X1818Y1458D02*
X1824Y1458D01*
X1832Y1458D02*
X1838Y1458D01*
X1911Y1458D02*
X1917Y1458D01*
X1936Y1458D02*
X1944Y1458D01*
X1975Y1458D02*
X1981Y1458D01*
X2119Y1458D02*
X2125Y1458D01*
X2270Y1458D02*
X2276Y1458D01*
X2313Y1458D02*
X2319Y1458D01*
X2415Y1458D02*
X2421Y1458D01*
X2436Y1458D02*
X2442Y1458D01*
X2514Y1458D02*
X2520Y1458D01*
X2541Y1458D02*
X2547Y1458D01*
X2614Y1458D02*
X2620Y1458D01*
X2639Y1458D02*
X2647Y1458D01*
X2664Y1458D02*
X2670Y1458D01*
X2715Y1458D02*
X2721Y1458D01*
X1015Y1457D02*
X1021Y1457D01*
X1027Y1457D02*
X1034Y1457D01*
X1058Y1457D02*
X1065Y1457D01*
X1085Y1457D02*
X1091Y1457D01*
X1115Y1457D02*
X1121Y1457D01*
X1128Y1457D02*
X1135Y1457D01*
X1209Y1457D02*
X1215Y1457D01*
X1222Y1457D02*
X1228Y1457D01*
X1236Y1457D02*
X1242Y1457D01*
X1259Y1457D02*
X1265Y1457D01*
X1316Y1457D02*
X1323Y1457D01*
X1359Y1457D02*
X1365Y1457D01*
X1387Y1457D02*
X1393Y1457D01*
X1460Y1457D02*
X1466Y1457D01*
X1487Y1457D02*
X1493Y1457D01*
X1510Y1457D02*
X1516Y1457D01*
X1537Y1457D02*
X1543Y1457D01*
X1610Y1457D02*
X1616Y1457D01*
X1638Y1457D02*
X1644Y1457D01*
X1667Y1457D02*
X1674Y1457D01*
X1761Y1457D02*
X1767Y1457D01*
X1788Y1457D02*
X1794Y1457D01*
X1818Y1457D02*
X1824Y1457D01*
X1832Y1457D02*
X1838Y1457D01*
X1911Y1457D02*
X1917Y1457D01*
X1937Y1457D02*
X1944Y1457D01*
X1975Y1457D02*
X1981Y1457D01*
X2119Y1457D02*
X2125Y1457D01*
X2270Y1457D02*
X2276Y1457D01*
X2313Y1457D02*
X2319Y1457D01*
X2415Y1457D02*
X2421Y1457D01*
X2436Y1457D02*
X2442Y1457D01*
X2514Y1457D02*
X2520Y1457D01*
X2541Y1457D02*
X2547Y1457D01*
X2614Y1457D02*
X2620Y1457D01*
X2640Y1457D02*
X2647Y1457D01*
X2664Y1457D02*
X2670Y1457D01*
X2715Y1457D02*
X2721Y1457D01*
X1015Y1456D02*
X1021Y1456D01*
X1028Y1456D02*
X1035Y1456D01*
X1058Y1456D02*
X1066Y1456D01*
X1086Y1456D02*
X1091Y1456D01*
X1115Y1456D02*
X1121Y1456D01*
X1128Y1456D02*
X1135Y1456D01*
X1209Y1456D02*
X1214Y1456D01*
X1222Y1456D02*
X1228Y1456D01*
X1236Y1456D02*
X1242Y1456D01*
X1259Y1456D02*
X1265Y1456D01*
X1315Y1456D02*
X1322Y1456D01*
X1359Y1456D02*
X1365Y1456D01*
X1387Y1456D02*
X1393Y1456D01*
X1460Y1456D02*
X1467Y1456D01*
X1487Y1456D02*
X1493Y1456D01*
X1510Y1456D02*
X1516Y1456D01*
X1537Y1456D02*
X1543Y1456D01*
X1610Y1456D02*
X1616Y1456D01*
X1638Y1456D02*
X1644Y1456D01*
X1667Y1456D02*
X1674Y1456D01*
X1761Y1456D02*
X1767Y1456D01*
X1788Y1456D02*
X1794Y1456D01*
X1818Y1456D02*
X1824Y1456D01*
X1832Y1456D02*
X1838Y1456D01*
X1911Y1456D02*
X1917Y1456D01*
X1938Y1456D02*
X1944Y1456D01*
X1975Y1456D02*
X1981Y1456D01*
X2119Y1456D02*
X2125Y1456D01*
X2270Y1456D02*
X2276Y1456D01*
X2313Y1456D02*
X2319Y1456D01*
X2415Y1456D02*
X2421Y1456D01*
X2436Y1456D02*
X2442Y1456D01*
X2514Y1456D02*
X2520Y1456D01*
X2541Y1456D02*
X2547Y1456D01*
X2614Y1456D02*
X2620Y1456D01*
X2641Y1456D02*
X2647Y1456D01*
X2664Y1456D02*
X2670Y1456D01*
X2715Y1456D02*
X2721Y1456D01*
X1015Y1455D02*
X1021Y1455D01*
X1028Y1455D02*
X1035Y1455D01*
X1059Y1455D02*
X1066Y1455D01*
X1086Y1455D02*
X1091Y1455D01*
X1115Y1455D02*
X1121Y1455D01*
X1129Y1455D02*
X1136Y1455D01*
X1209Y1455D02*
X1214Y1455D01*
X1222Y1455D02*
X1228Y1455D01*
X1237Y1455D02*
X1241Y1455D01*
X1259Y1455D02*
X1265Y1455D01*
X1315Y1455D02*
X1322Y1455D01*
X1359Y1455D02*
X1365Y1455D01*
X1387Y1455D02*
X1393Y1455D01*
X1460Y1455D02*
X1468Y1455D01*
X1488Y1455D02*
X1492Y1455D01*
X1510Y1455D02*
X1516Y1455D01*
X1537Y1455D02*
X1543Y1455D01*
X1610Y1455D02*
X1616Y1455D01*
X1638Y1455D02*
X1644Y1455D01*
X1666Y1455D02*
X1673Y1455D01*
X1761Y1455D02*
X1767Y1455D01*
X1788Y1455D02*
X1794Y1455D01*
X1818Y1455D02*
X1824Y1455D01*
X1832Y1455D02*
X1838Y1455D01*
X1911Y1455D02*
X1917Y1455D01*
X1938Y1455D02*
X1945Y1455D01*
X1975Y1455D02*
X1981Y1455D01*
X2119Y1455D02*
X2125Y1455D01*
X2270Y1455D02*
X2276Y1455D01*
X2313Y1455D02*
X2319Y1455D01*
X2415Y1455D02*
X2421Y1455D01*
X2436Y1455D02*
X2442Y1455D01*
X2514Y1455D02*
X2520Y1455D01*
X2541Y1455D02*
X2547Y1455D01*
X2614Y1455D02*
X2620Y1455D01*
X2641Y1455D02*
X2647Y1455D01*
X2664Y1455D02*
X2670Y1455D01*
X2715Y1455D02*
X2721Y1455D01*
X1015Y1454D02*
X1021Y1454D01*
X1029Y1454D02*
X1036Y1454D01*
X1059Y1454D02*
X1067Y1454D01*
X1087Y1454D02*
X1090Y1454D01*
X1115Y1454D02*
X1121Y1454D01*
X1129Y1454D02*
X1136Y1454D01*
X1210Y1454D02*
X1213Y1454D01*
X1222Y1454D02*
X1228Y1454D01*
X1238Y1454D02*
X1240Y1454D01*
X1259Y1454D02*
X1265Y1454D01*
X1314Y1454D02*
X1321Y1454D01*
X1359Y1454D02*
X1365Y1454D01*
X1387Y1454D02*
X1393Y1454D01*
X1461Y1454D02*
X1469Y1454D01*
X1489Y1454D02*
X1491Y1454D01*
X1510Y1454D02*
X1516Y1454D01*
X1537Y1454D02*
X1543Y1454D01*
X1610Y1454D02*
X1616Y1454D01*
X1638Y1454D02*
X1644Y1454D01*
X1666Y1454D02*
X1673Y1454D01*
X1761Y1454D02*
X1767Y1454D01*
X1788Y1454D02*
X1794Y1454D01*
X1818Y1454D02*
X1824Y1454D01*
X1832Y1454D02*
X1838Y1454D01*
X1911Y1454D02*
X1917Y1454D01*
X1939Y1454D02*
X1945Y1454D01*
X1975Y1454D02*
X1981Y1454D01*
X2119Y1454D02*
X2125Y1454D01*
X2270Y1454D02*
X2276Y1454D01*
X2313Y1454D02*
X2319Y1454D01*
X2415Y1454D02*
X2421Y1454D01*
X2436Y1454D02*
X2442Y1454D01*
X2514Y1454D02*
X2520Y1454D01*
X2541Y1454D02*
X2547Y1454D01*
X2614Y1454D02*
X2620Y1454D01*
X2642Y1454D02*
X2648Y1454D01*
X2664Y1454D02*
X2670Y1454D01*
X2715Y1454D02*
X2721Y1454D01*
X1015Y1453D02*
X1021Y1453D01*
X1029Y1453D02*
X1036Y1453D01*
X1060Y1453D02*
X1068Y1453D01*
X1115Y1453D02*
X1121Y1453D01*
X1130Y1453D02*
X1137Y1453D01*
X1222Y1453D02*
X1228Y1453D01*
X1259Y1453D02*
X1265Y1453D01*
X1314Y1453D02*
X1321Y1453D01*
X1359Y1453D02*
X1365Y1453D01*
X1387Y1453D02*
X1393Y1453D01*
X1462Y1453D02*
X1470Y1453D01*
X1510Y1453D02*
X1516Y1453D01*
X1537Y1453D02*
X1543Y1453D01*
X1610Y1453D02*
X1616Y1453D01*
X1638Y1453D02*
X1644Y1453D01*
X1665Y1453D02*
X1672Y1453D01*
X1761Y1453D02*
X1767Y1453D01*
X1788Y1453D02*
X1794Y1453D01*
X1818Y1453D02*
X1824Y1453D01*
X1832Y1453D02*
X1838Y1453D01*
X1911Y1453D02*
X1917Y1453D01*
X1939Y1453D02*
X1945Y1453D01*
X1975Y1453D02*
X1981Y1453D01*
X2119Y1453D02*
X2125Y1453D01*
X2270Y1453D02*
X2276Y1453D01*
X2313Y1453D02*
X2319Y1453D01*
X2415Y1453D02*
X2421Y1453D01*
X2436Y1453D02*
X2442Y1453D01*
X2514Y1453D02*
X2520Y1453D01*
X2541Y1453D02*
X2547Y1453D01*
X2614Y1453D02*
X2620Y1453D01*
X2642Y1453D02*
X2648Y1453D01*
X2664Y1453D02*
X2670Y1453D01*
X2715Y1453D02*
X2721Y1453D01*
X1015Y1452D02*
X1021Y1452D01*
X1030Y1452D02*
X1037Y1452D01*
X1061Y1452D02*
X1069Y1452D01*
X1115Y1452D02*
X1121Y1452D01*
X1130Y1452D02*
X1137Y1452D01*
X1222Y1452D02*
X1228Y1452D01*
X1259Y1452D02*
X1265Y1452D01*
X1313Y1452D02*
X1320Y1452D01*
X1359Y1452D02*
X1365Y1452D01*
X1387Y1452D02*
X1393Y1452D01*
X1462Y1452D02*
X1470Y1452D01*
X1510Y1452D02*
X1516Y1452D01*
X1537Y1452D02*
X1543Y1452D01*
X1610Y1452D02*
X1616Y1452D01*
X1638Y1452D02*
X1644Y1452D01*
X1665Y1452D02*
X1672Y1452D01*
X1761Y1452D02*
X1767Y1452D01*
X1788Y1452D02*
X1794Y1452D01*
X1818Y1452D02*
X1824Y1452D01*
X1832Y1452D02*
X1838Y1452D01*
X1911Y1452D02*
X1917Y1452D01*
X1939Y1452D02*
X1945Y1452D01*
X1975Y1452D02*
X1981Y1452D01*
X2119Y1452D02*
X2125Y1452D01*
X2270Y1452D02*
X2276Y1452D01*
X2313Y1452D02*
X2319Y1452D01*
X2415Y1452D02*
X2421Y1452D01*
X2436Y1452D02*
X2442Y1452D01*
X2514Y1452D02*
X2520Y1452D01*
X2541Y1452D02*
X2547Y1452D01*
X2614Y1452D02*
X2620Y1452D01*
X2642Y1452D02*
X2648Y1452D01*
X2664Y1452D02*
X2670Y1452D01*
X2715Y1452D02*
X2721Y1452D01*
X1015Y1451D02*
X1021Y1451D01*
X1030Y1451D02*
X1037Y1451D01*
X1062Y1451D02*
X1070Y1451D01*
X1115Y1451D02*
X1121Y1451D01*
X1131Y1451D02*
X1138Y1451D01*
X1222Y1451D02*
X1228Y1451D01*
X1259Y1451D02*
X1265Y1451D01*
X1313Y1451D02*
X1320Y1451D01*
X1359Y1451D02*
X1365Y1451D01*
X1387Y1451D02*
X1393Y1451D01*
X1463Y1451D02*
X1471Y1451D01*
X1510Y1451D02*
X1516Y1451D01*
X1537Y1451D02*
X1543Y1451D01*
X1610Y1451D02*
X1616Y1451D01*
X1638Y1451D02*
X1644Y1451D01*
X1664Y1451D02*
X1671Y1451D01*
X1761Y1451D02*
X1767Y1451D01*
X1788Y1451D02*
X1794Y1451D01*
X1818Y1451D02*
X1824Y1451D01*
X1832Y1451D02*
X1838Y1451D01*
X1911Y1451D02*
X1917Y1451D01*
X1939Y1451D02*
X1945Y1451D01*
X1975Y1451D02*
X1981Y1451D01*
X2013Y1451D02*
X2016Y1451D01*
X2041Y1451D02*
X2044Y1451D01*
X2071Y1451D02*
X2086Y1451D01*
X2114Y1451D02*
X2141Y1451D01*
X2172Y1451D02*
X2186Y1451D01*
X2222Y1451D02*
X2237Y1451D01*
X2264Y1451D02*
X2291Y1451D01*
X2313Y1451D02*
X2319Y1451D01*
X2329Y1451D02*
X2339Y1451D01*
X2415Y1451D02*
X2421Y1451D01*
X2436Y1451D02*
X2442Y1451D01*
X2514Y1451D02*
X2520Y1451D01*
X2541Y1451D02*
X2547Y1451D01*
X2614Y1451D02*
X2620Y1451D01*
X2642Y1451D02*
X2648Y1451D01*
X2664Y1451D02*
X2670Y1451D01*
X2715Y1451D02*
X2721Y1451D01*
X1015Y1450D02*
X1021Y1450D01*
X1031Y1450D02*
X1038Y1450D01*
X1062Y1450D02*
X1070Y1450D01*
X1115Y1450D02*
X1121Y1450D01*
X1131Y1450D02*
X1138Y1450D01*
X1222Y1450D02*
X1228Y1450D01*
X1259Y1450D02*
X1265Y1450D01*
X1312Y1450D02*
X1319Y1450D01*
X1359Y1450D02*
X1365Y1450D01*
X1387Y1450D02*
X1393Y1450D01*
X1464Y1450D02*
X1472Y1450D01*
X1510Y1450D02*
X1516Y1450D01*
X1537Y1450D02*
X1543Y1450D01*
X1610Y1450D02*
X1616Y1450D01*
X1638Y1450D02*
X1644Y1450D01*
X1664Y1450D02*
X1671Y1450D01*
X1761Y1450D02*
X1767Y1450D01*
X1788Y1450D02*
X1794Y1450D01*
X1818Y1450D02*
X1824Y1450D01*
X1832Y1450D02*
X1838Y1450D01*
X1911Y1450D02*
X1917Y1450D01*
X1939Y1450D02*
X1945Y1450D01*
X1975Y1450D02*
X1981Y1450D01*
X2012Y1450D02*
X2017Y1450D01*
X2040Y1450D02*
X2045Y1450D01*
X2069Y1450D02*
X2088Y1450D01*
X2113Y1450D02*
X2142Y1450D01*
X2170Y1450D02*
X2188Y1450D01*
X2220Y1450D02*
X2239Y1450D01*
X2263Y1450D02*
X2292Y1450D01*
X2313Y1450D02*
X2319Y1450D01*
X2327Y1450D02*
X2341Y1450D01*
X2415Y1450D02*
X2421Y1450D01*
X2436Y1450D02*
X2442Y1450D01*
X2514Y1450D02*
X2520Y1450D01*
X2541Y1450D02*
X2547Y1450D01*
X2614Y1450D02*
X2620Y1450D01*
X2642Y1450D02*
X2648Y1450D01*
X2664Y1450D02*
X2670Y1450D01*
X2715Y1450D02*
X2721Y1450D01*
X1015Y1449D02*
X1021Y1449D01*
X1031Y1449D02*
X1038Y1449D01*
X1063Y1449D02*
X1071Y1449D01*
X1115Y1449D02*
X1121Y1449D01*
X1132Y1449D02*
X1139Y1449D01*
X1222Y1449D02*
X1228Y1449D01*
X1259Y1449D02*
X1265Y1449D01*
X1312Y1449D02*
X1319Y1449D01*
X1359Y1449D02*
X1365Y1449D01*
X1387Y1449D02*
X1393Y1449D01*
X1465Y1449D02*
X1473Y1449D01*
X1510Y1449D02*
X1516Y1449D01*
X1537Y1449D02*
X1543Y1449D01*
X1610Y1449D02*
X1616Y1449D01*
X1638Y1449D02*
X1644Y1449D01*
X1663Y1449D02*
X1670Y1449D01*
X1761Y1449D02*
X1767Y1449D01*
X1788Y1449D02*
X1794Y1449D01*
X1818Y1449D02*
X1824Y1449D01*
X1832Y1449D02*
X1838Y1449D01*
X1911Y1449D02*
X1917Y1449D01*
X1939Y1449D02*
X1945Y1449D01*
X1975Y1449D02*
X1981Y1449D01*
X2012Y1449D02*
X2018Y1449D01*
X2040Y1449D02*
X2045Y1449D01*
X2068Y1449D02*
X2089Y1449D01*
X2112Y1449D02*
X2142Y1449D01*
X2168Y1449D02*
X2190Y1449D01*
X2219Y1449D02*
X2240Y1449D01*
X2263Y1449D02*
X2293Y1449D01*
X2313Y1449D02*
X2319Y1449D01*
X2325Y1449D02*
X2342Y1449D01*
X2415Y1449D02*
X2421Y1449D01*
X2436Y1449D02*
X2442Y1449D01*
X2514Y1449D02*
X2520Y1449D01*
X2541Y1449D02*
X2547Y1449D01*
X2614Y1449D02*
X2620Y1449D01*
X2642Y1449D02*
X2648Y1449D01*
X2664Y1449D02*
X2670Y1449D01*
X2715Y1449D02*
X2721Y1449D01*
X1015Y1448D02*
X1021Y1448D01*
X1032Y1448D02*
X1039Y1448D01*
X1064Y1448D02*
X1072Y1448D01*
X1115Y1448D02*
X1121Y1448D01*
X1132Y1448D02*
X1139Y1448D01*
X1222Y1448D02*
X1228Y1448D01*
X1259Y1448D02*
X1265Y1448D01*
X1311Y1448D02*
X1318Y1448D01*
X1359Y1448D02*
X1365Y1448D01*
X1387Y1448D02*
X1393Y1448D01*
X1465Y1448D02*
X1473Y1448D01*
X1510Y1448D02*
X1516Y1448D01*
X1537Y1448D02*
X1543Y1448D01*
X1610Y1448D02*
X1616Y1448D01*
X1638Y1448D02*
X1644Y1448D01*
X1663Y1448D02*
X1670Y1448D01*
X1761Y1448D02*
X1767Y1448D01*
X1788Y1448D02*
X1794Y1448D01*
X1818Y1448D02*
X1824Y1448D01*
X1832Y1448D02*
X1838Y1448D01*
X1911Y1448D02*
X1917Y1448D01*
X1939Y1448D02*
X1945Y1448D01*
X1975Y1448D02*
X1981Y1448D01*
X2012Y1448D02*
X2018Y1448D01*
X2039Y1448D02*
X2045Y1448D01*
X2067Y1448D02*
X2091Y1448D01*
X2112Y1448D02*
X2142Y1448D01*
X2167Y1448D02*
X2191Y1448D01*
X2217Y1448D02*
X2241Y1448D01*
X2263Y1448D02*
X2293Y1448D01*
X2313Y1448D02*
X2319Y1448D01*
X2324Y1448D02*
X2343Y1448D01*
X2415Y1448D02*
X2421Y1448D01*
X2436Y1448D02*
X2442Y1448D01*
X2514Y1448D02*
X2520Y1448D01*
X2541Y1448D02*
X2547Y1448D01*
X2614Y1448D02*
X2620Y1448D01*
X2641Y1448D02*
X2648Y1448D01*
X2664Y1448D02*
X2670Y1448D01*
X2715Y1448D02*
X2721Y1448D01*
X1015Y1447D02*
X1021Y1447D01*
X1032Y1447D02*
X1039Y1447D01*
X1065Y1447D02*
X1073Y1447D01*
X1115Y1447D02*
X1121Y1447D01*
X1133Y1447D02*
X1140Y1447D01*
X1222Y1447D02*
X1228Y1447D01*
X1259Y1447D02*
X1265Y1447D01*
X1311Y1447D02*
X1318Y1447D01*
X1359Y1447D02*
X1365Y1447D01*
X1387Y1447D02*
X1393Y1447D01*
X1466Y1447D02*
X1474Y1447D01*
X1510Y1447D02*
X1516Y1447D01*
X1537Y1447D02*
X1543Y1447D01*
X1610Y1447D02*
X1616Y1447D01*
X1638Y1447D02*
X1644Y1447D01*
X1662Y1447D02*
X1669Y1447D01*
X1761Y1447D02*
X1767Y1447D01*
X1788Y1447D02*
X1794Y1447D01*
X1818Y1447D02*
X1824Y1447D01*
X1832Y1447D02*
X1838Y1447D01*
X1911Y1447D02*
X1917Y1447D01*
X1938Y1447D02*
X1945Y1447D01*
X1975Y1447D02*
X1981Y1447D01*
X2012Y1447D02*
X2018Y1447D01*
X2039Y1447D02*
X2045Y1447D01*
X2066Y1447D02*
X2092Y1447D01*
X2112Y1447D02*
X2142Y1447D01*
X2166Y1447D02*
X2192Y1447D01*
X2216Y1447D02*
X2242Y1447D01*
X2263Y1447D02*
X2293Y1447D01*
X2313Y1447D02*
X2319Y1447D01*
X2322Y1447D02*
X2344Y1447D01*
X2415Y1447D02*
X2421Y1447D01*
X2436Y1447D02*
X2442Y1447D01*
X2514Y1447D02*
X2520Y1447D01*
X2541Y1447D02*
X2547Y1447D01*
X2614Y1447D02*
X2620Y1447D01*
X2641Y1447D02*
X2647Y1447D01*
X2664Y1447D02*
X2670Y1447D01*
X2715Y1447D02*
X2721Y1447D01*
X1015Y1446D02*
X1021Y1446D01*
X1033Y1446D02*
X1040Y1446D01*
X1065Y1446D02*
X1073Y1446D01*
X1115Y1446D02*
X1121Y1446D01*
X1133Y1446D02*
X1140Y1446D01*
X1222Y1446D02*
X1228Y1446D01*
X1259Y1446D02*
X1265Y1446D01*
X1310Y1446D02*
X1317Y1446D01*
X1359Y1446D02*
X1365Y1446D01*
X1387Y1446D02*
X1393Y1446D01*
X1467Y1446D02*
X1475Y1446D01*
X1510Y1446D02*
X1516Y1446D01*
X1537Y1446D02*
X1543Y1446D01*
X1610Y1446D02*
X1616Y1446D01*
X1638Y1446D02*
X1644Y1446D01*
X1662Y1446D02*
X1669Y1446D01*
X1761Y1446D02*
X1767Y1446D01*
X1788Y1446D02*
X1794Y1446D01*
X1818Y1446D02*
X1824Y1446D01*
X1832Y1446D02*
X1838Y1446D01*
X1911Y1446D02*
X1917Y1446D01*
X1938Y1446D02*
X1944Y1446D01*
X1975Y1446D02*
X1981Y1446D01*
X2012Y1446D02*
X2018Y1446D01*
X2039Y1446D02*
X2045Y1446D01*
X2065Y1446D02*
X2093Y1446D01*
X2113Y1446D02*
X2141Y1446D01*
X2165Y1446D02*
X2193Y1446D01*
X2215Y1446D02*
X2243Y1446D01*
X2264Y1446D02*
X2292Y1446D01*
X2313Y1446D02*
X2344Y1446D01*
X2415Y1446D02*
X2421Y1446D01*
X2436Y1446D02*
X2442Y1446D01*
X2514Y1446D02*
X2520Y1446D01*
X2541Y1446D02*
X2547Y1446D01*
X2614Y1446D02*
X2620Y1446D01*
X2641Y1446D02*
X2647Y1446D01*
X2664Y1446D02*
X2670Y1446D01*
X2715Y1446D02*
X2721Y1446D01*
X1015Y1445D02*
X1021Y1445D01*
X1033Y1445D02*
X1040Y1445D01*
X1066Y1445D02*
X1074Y1445D01*
X1115Y1445D02*
X1121Y1445D01*
X1134Y1445D02*
X1141Y1445D01*
X1222Y1445D02*
X1228Y1445D01*
X1259Y1445D02*
X1265Y1445D01*
X1310Y1445D02*
X1317Y1445D01*
X1359Y1445D02*
X1365Y1445D01*
X1387Y1445D02*
X1393Y1445D01*
X1468Y1445D02*
X1476Y1445D01*
X1510Y1445D02*
X1516Y1445D01*
X1537Y1445D02*
X1543Y1445D01*
X1610Y1445D02*
X1616Y1445D01*
X1638Y1445D02*
X1644Y1445D01*
X1662Y1445D02*
X1668Y1445D01*
X1761Y1445D02*
X1767Y1445D01*
X1788Y1445D02*
X1794Y1445D01*
X1818Y1445D02*
X1824Y1445D01*
X1832Y1445D02*
X1838Y1445D01*
X1911Y1445D02*
X1917Y1445D01*
X1937Y1445D02*
X1944Y1445D01*
X1975Y1445D02*
X1981Y1445D01*
X2012Y1445D02*
X2018Y1445D01*
X2039Y1445D02*
X2045Y1445D01*
X2064Y1445D02*
X2094Y1445D01*
X2114Y1445D02*
X2140Y1445D01*
X2164Y1445D02*
X2194Y1445D01*
X2215Y1445D02*
X2244Y1445D01*
X2265Y1445D02*
X2291Y1445D01*
X2313Y1445D02*
X2345Y1445D01*
X2415Y1445D02*
X2421Y1445D01*
X2436Y1445D02*
X2442Y1445D01*
X2514Y1445D02*
X2520Y1445D01*
X2541Y1445D02*
X2547Y1445D01*
X2614Y1445D02*
X2620Y1445D01*
X2640Y1445D02*
X2647Y1445D01*
X2664Y1445D02*
X2670Y1445D01*
X2715Y1445D02*
X2721Y1445D01*
X1015Y1444D02*
X1021Y1444D01*
X1034Y1444D02*
X1040Y1444D01*
X1067Y1444D02*
X1075Y1444D01*
X1115Y1444D02*
X1121Y1444D01*
X1134Y1444D02*
X1141Y1444D01*
X1222Y1444D02*
X1228Y1444D01*
X1259Y1444D02*
X1265Y1444D01*
X1310Y1444D02*
X1316Y1444D01*
X1359Y1444D02*
X1365Y1444D01*
X1387Y1444D02*
X1393Y1444D01*
X1469Y1444D02*
X1477Y1444D01*
X1510Y1444D02*
X1516Y1444D01*
X1537Y1444D02*
X1543Y1444D01*
X1610Y1444D02*
X1616Y1444D01*
X1638Y1444D02*
X1644Y1444D01*
X1661Y1444D02*
X1668Y1444D01*
X1761Y1444D02*
X1767Y1444D01*
X1788Y1444D02*
X1794Y1444D01*
X1818Y1444D02*
X1824Y1444D01*
X1832Y1444D02*
X1838Y1444D01*
X1911Y1444D02*
X1917Y1444D01*
X1936Y1444D02*
X1944Y1444D01*
X1975Y1444D02*
X1981Y1444D01*
X2012Y1444D02*
X2018Y1444D01*
X2039Y1444D02*
X2045Y1444D01*
X2063Y1444D02*
X2072Y1444D01*
X2086Y1444D02*
X2094Y1444D01*
X2119Y1444D02*
X2125Y1444D01*
X2164Y1444D02*
X2172Y1444D01*
X2186Y1444D02*
X2195Y1444D01*
X2214Y1444D02*
X2223Y1444D01*
X2236Y1444D02*
X2245Y1444D01*
X2270Y1444D02*
X2276Y1444D01*
X2313Y1444D02*
X2329Y1444D01*
X2338Y1444D02*
X2345Y1444D01*
X2415Y1444D02*
X2421Y1444D01*
X2436Y1444D02*
X2442Y1444D01*
X2514Y1444D02*
X2520Y1444D01*
X2541Y1444D02*
X2547Y1444D01*
X2614Y1444D02*
X2620Y1444D01*
X2639Y1444D02*
X2647Y1444D01*
X2664Y1444D02*
X2670Y1444D01*
X2715Y1444D02*
X2721Y1444D01*
X1015Y1443D02*
X1021Y1443D01*
X1034Y1443D02*
X1041Y1443D01*
X1068Y1443D02*
X1076Y1443D01*
X1115Y1443D02*
X1121Y1443D01*
X1135Y1443D02*
X1141Y1443D01*
X1222Y1443D02*
X1228Y1443D01*
X1259Y1443D02*
X1265Y1443D01*
X1309Y1443D02*
X1316Y1443D01*
X1359Y1443D02*
X1365Y1443D01*
X1387Y1443D02*
X1393Y1443D01*
X1469Y1443D02*
X1477Y1443D01*
X1510Y1443D02*
X1516Y1443D01*
X1537Y1443D02*
X1543Y1443D01*
X1610Y1443D02*
X1616Y1443D01*
X1638Y1443D02*
X1644Y1443D01*
X1661Y1443D02*
X1667Y1443D01*
X1761Y1443D02*
X1767Y1443D01*
X1788Y1443D02*
X1794Y1443D01*
X1818Y1443D02*
X1824Y1443D01*
X1831Y1443D02*
X1838Y1443D01*
X1911Y1443D02*
X1918Y1443D01*
X1934Y1443D02*
X1943Y1443D01*
X1975Y1443D02*
X1981Y1443D01*
X2012Y1443D02*
X2018Y1443D01*
X2039Y1443D02*
X2045Y1443D01*
X2063Y1443D02*
X2071Y1443D01*
X2087Y1443D02*
X2095Y1443D01*
X2119Y1443D02*
X2125Y1443D01*
X2163Y1443D02*
X2171Y1443D01*
X2187Y1443D02*
X2195Y1443D01*
X2213Y1443D02*
X2221Y1443D01*
X2238Y1443D02*
X2245Y1443D01*
X2270Y1443D02*
X2276Y1443D01*
X2313Y1443D02*
X2328Y1443D01*
X2339Y1443D02*
X2345Y1443D01*
X2415Y1443D02*
X2421Y1443D01*
X2436Y1443D02*
X2442Y1443D01*
X2514Y1443D02*
X2520Y1443D01*
X2541Y1443D02*
X2547Y1443D01*
X2614Y1443D02*
X2620Y1443D01*
X2636Y1443D02*
X2646Y1443D01*
X2664Y1443D02*
X2670Y1443D01*
X2715Y1443D02*
X2721Y1443D01*
X1015Y1442D02*
X1021Y1442D01*
X1035Y1442D02*
X1041Y1442D01*
X1069Y1442D02*
X1077Y1442D01*
X1115Y1442D02*
X1121Y1442D01*
X1135Y1442D02*
X1141Y1442D01*
X1222Y1442D02*
X1228Y1442D01*
X1259Y1442D02*
X1277Y1442D01*
X1309Y1442D02*
X1315Y1442D01*
X1359Y1442D02*
X1393Y1442D01*
X1470Y1442D02*
X1478Y1442D01*
X1510Y1442D02*
X1543Y1442D01*
X1561Y1442D02*
X1592Y1442D01*
X1610Y1442D02*
X1644Y1442D01*
X1661Y1442D02*
X1667Y1442D01*
X1712Y1442D02*
X1743Y1442D01*
X1761Y1442D02*
X1767Y1442D01*
X1788Y1442D02*
X1794Y1442D01*
X1815Y1442D02*
X1841Y1442D01*
X1911Y1442D02*
X1943Y1442D01*
X1975Y1442D02*
X1981Y1442D01*
X2012Y1442D02*
X2018Y1442D01*
X2039Y1442D02*
X2045Y1442D01*
X2062Y1442D02*
X2070Y1442D01*
X2088Y1442D02*
X2095Y1442D01*
X2119Y1442D02*
X2125Y1442D01*
X2163Y1442D02*
X2170Y1442D01*
X2188Y1442D02*
X2195Y1442D01*
X2213Y1442D02*
X2220Y1442D01*
X2239Y1442D02*
X2246Y1442D01*
X2270Y1442D02*
X2276Y1442D01*
X2313Y1442D02*
X2326Y1442D01*
X2339Y1442D02*
X2346Y1442D01*
X2415Y1442D02*
X2421Y1442D01*
X2436Y1442D02*
X2442Y1442D01*
X2514Y1442D02*
X2520Y1442D01*
X2541Y1442D02*
X2547Y1442D01*
X2614Y1442D02*
X2645Y1442D01*
X2664Y1442D02*
X2670Y1442D01*
X2715Y1442D02*
X2733Y1442D01*
X1015Y1441D02*
X1021Y1441D01*
X1035Y1441D02*
X1041Y1441D01*
X1069Y1441D02*
X1077Y1441D01*
X1115Y1441D02*
X1121Y1441D01*
X1135Y1441D02*
X1142Y1441D01*
X1222Y1441D02*
X1228Y1441D01*
X1259Y1441D02*
X1278Y1441D01*
X1309Y1441D02*
X1315Y1441D01*
X1359Y1441D02*
X1393Y1441D01*
X1471Y1441D02*
X1479Y1441D01*
X1510Y1441D02*
X1543Y1441D01*
X1560Y1441D02*
X1593Y1441D01*
X1610Y1441D02*
X1644Y1441D01*
X1660Y1441D02*
X1667Y1441D01*
X1711Y1441D02*
X1744Y1441D01*
X1761Y1441D02*
X1767Y1441D01*
X1788Y1441D02*
X1794Y1441D01*
X1813Y1441D02*
X1842Y1441D01*
X1911Y1441D02*
X1942Y1441D01*
X1975Y1441D02*
X1981Y1441D01*
X2012Y1441D02*
X2018Y1441D01*
X2039Y1441D02*
X2045Y1441D01*
X2062Y1441D02*
X2069Y1441D01*
X2089Y1441D02*
X2095Y1441D01*
X2119Y1441D02*
X2125Y1441D01*
X2163Y1441D02*
X2169Y1441D01*
X2189Y1441D02*
X2196Y1441D01*
X2213Y1441D02*
X2219Y1441D01*
X2239Y1441D02*
X2246Y1441D01*
X2270Y1441D02*
X2276Y1441D01*
X2313Y1441D02*
X2325Y1441D01*
X2340Y1441D02*
X2346Y1441D01*
X2415Y1441D02*
X2421Y1441D01*
X2436Y1441D02*
X2442Y1441D01*
X2514Y1441D02*
X2520Y1441D01*
X2541Y1441D02*
X2547Y1441D01*
X2614Y1441D02*
X2645Y1441D01*
X2664Y1441D02*
X2670Y1441D01*
X2715Y1441D02*
X2734Y1441D01*
X1015Y1440D02*
X1021Y1440D01*
X1035Y1440D02*
X1041Y1440D01*
X1070Y1440D02*
X1078Y1440D01*
X1115Y1440D02*
X1121Y1440D01*
X1136Y1440D02*
X1142Y1440D01*
X1222Y1440D02*
X1228Y1440D01*
X1259Y1440D02*
X1278Y1440D01*
X1309Y1440D02*
X1315Y1440D01*
X1359Y1440D02*
X1393Y1440D01*
X1472Y1440D02*
X1480Y1440D01*
X1510Y1440D02*
X1543Y1440D01*
X1560Y1440D02*
X1593Y1440D01*
X1610Y1440D02*
X1644Y1440D01*
X1660Y1440D02*
X1666Y1440D01*
X1711Y1440D02*
X1744Y1440D01*
X1761Y1440D02*
X1767Y1440D01*
X1788Y1440D02*
X1794Y1440D01*
X1812Y1440D02*
X1843Y1440D01*
X1911Y1440D02*
X1941Y1440D01*
X1975Y1440D02*
X1981Y1440D01*
X2012Y1440D02*
X2018Y1440D01*
X2039Y1440D02*
X2045Y1440D01*
X2062Y1440D02*
X2068Y1440D01*
X2089Y1440D02*
X2095Y1440D01*
X2119Y1440D02*
X2125Y1440D01*
X2162Y1440D02*
X2169Y1440D01*
X2190Y1440D02*
X2196Y1440D01*
X2213Y1440D02*
X2219Y1440D01*
X2240Y1440D02*
X2246Y1440D01*
X2270Y1440D02*
X2276Y1440D01*
X2313Y1440D02*
X2323Y1440D01*
X2340Y1440D02*
X2346Y1440D01*
X2415Y1440D02*
X2421Y1440D01*
X2436Y1440D02*
X2442Y1440D01*
X2514Y1440D02*
X2520Y1440D01*
X2541Y1440D02*
X2547Y1440D01*
X2614Y1440D02*
X2644Y1440D01*
X2664Y1440D02*
X2670Y1440D01*
X2715Y1440D02*
X2734Y1440D01*
X1015Y1439D02*
X1021Y1439D01*
X1035Y1439D02*
X1041Y1439D01*
X1071Y1439D02*
X1079Y1439D01*
X1115Y1439D02*
X1121Y1439D01*
X1136Y1439D02*
X1142Y1439D01*
X1222Y1439D02*
X1228Y1439D01*
X1259Y1439D02*
X1278Y1439D01*
X1309Y1439D02*
X1315Y1439D01*
X1359Y1439D02*
X1393Y1439D01*
X1472Y1439D02*
X1480Y1439D01*
X1510Y1439D02*
X1543Y1439D01*
X1560Y1439D02*
X1594Y1439D01*
X1610Y1439D02*
X1644Y1439D01*
X1660Y1439D02*
X1666Y1439D01*
X1711Y1439D02*
X1744Y1439D01*
X1761Y1439D02*
X1767Y1439D01*
X1788Y1439D02*
X1794Y1439D01*
X1812Y1439D02*
X1844Y1439D01*
X1911Y1439D02*
X1940Y1439D01*
X1975Y1439D02*
X1981Y1439D01*
X2012Y1439D02*
X2018Y1439D01*
X2039Y1439D02*
X2045Y1439D01*
X2062Y1439D02*
X2068Y1439D01*
X2090Y1439D02*
X2096Y1439D01*
X2119Y1439D02*
X2125Y1439D01*
X2162Y1439D02*
X2168Y1439D01*
X2190Y1439D02*
X2196Y1439D01*
X2213Y1439D02*
X2219Y1439D01*
X2240Y1439D02*
X2246Y1439D01*
X2270Y1439D02*
X2276Y1439D01*
X2313Y1439D02*
X2322Y1439D01*
X2340Y1439D02*
X2346Y1439D01*
X2415Y1439D02*
X2421Y1439D01*
X2436Y1439D02*
X2442Y1439D01*
X2514Y1439D02*
X2520Y1439D01*
X2541Y1439D02*
X2547Y1439D01*
X2614Y1439D02*
X2643Y1439D01*
X2664Y1439D02*
X2670Y1439D01*
X2715Y1439D02*
X2734Y1439D01*
X1015Y1438D02*
X1021Y1438D01*
X1035Y1438D02*
X1041Y1438D01*
X1072Y1438D02*
X1080Y1438D01*
X1115Y1438D02*
X1121Y1438D01*
X1136Y1438D02*
X1142Y1438D01*
X1222Y1438D02*
X1228Y1438D01*
X1259Y1438D02*
X1278Y1438D01*
X1309Y1438D02*
X1315Y1438D01*
X1359Y1438D02*
X1393Y1438D01*
X1473Y1438D02*
X1481Y1438D01*
X1510Y1438D02*
X1543Y1438D01*
X1560Y1438D02*
X1594Y1438D01*
X1610Y1438D02*
X1644Y1438D01*
X1660Y1438D02*
X1667Y1438D01*
X1711Y1438D02*
X1744Y1438D01*
X1761Y1438D02*
X1767Y1438D01*
X1788Y1438D02*
X1794Y1438D01*
X1811Y1438D02*
X1844Y1438D01*
X1911Y1438D02*
X1941Y1438D01*
X1975Y1438D02*
X1981Y1438D01*
X2012Y1438D02*
X2018Y1438D01*
X2039Y1438D02*
X2045Y1438D01*
X2062Y1438D02*
X2068Y1438D01*
X2090Y1438D02*
X2096Y1438D01*
X2119Y1438D02*
X2125Y1438D01*
X2162Y1438D02*
X2168Y1438D01*
X2190Y1438D02*
X2196Y1438D01*
X2213Y1438D02*
X2219Y1438D01*
X2240Y1438D02*
X2246Y1438D01*
X2270Y1438D02*
X2276Y1438D01*
X2313Y1438D02*
X2320Y1438D01*
X2340Y1438D02*
X2346Y1438D01*
X2415Y1438D02*
X2421Y1438D01*
X2436Y1438D02*
X2442Y1438D01*
X2514Y1438D02*
X2520Y1438D01*
X2541Y1438D02*
X2547Y1438D01*
X2614Y1438D02*
X2644Y1438D01*
X2664Y1438D02*
X2670Y1438D01*
X2715Y1438D02*
X2734Y1438D01*
X1015Y1437D02*
X1021Y1437D01*
X1035Y1437D02*
X1041Y1437D01*
X1072Y1437D02*
X1080Y1437D01*
X1115Y1437D02*
X1121Y1437D01*
X1135Y1437D02*
X1142Y1437D01*
X1222Y1437D02*
X1228Y1437D01*
X1259Y1437D02*
X1278Y1437D01*
X1309Y1437D02*
X1315Y1437D01*
X1359Y1437D02*
X1393Y1437D01*
X1474Y1437D02*
X1482Y1437D01*
X1510Y1437D02*
X1543Y1437D01*
X1560Y1437D02*
X1594Y1437D01*
X1610Y1437D02*
X1644Y1437D01*
X1661Y1437D02*
X1667Y1437D01*
X1711Y1437D02*
X1744Y1437D01*
X1761Y1437D02*
X1767Y1437D01*
X1788Y1437D02*
X1794Y1437D01*
X1811Y1437D02*
X1844Y1437D01*
X1911Y1437D02*
X1942Y1437D01*
X1975Y1437D02*
X1981Y1437D01*
X2012Y1437D02*
X2018Y1437D01*
X2039Y1437D02*
X2045Y1437D01*
X2062Y1437D02*
X2068Y1437D01*
X2090Y1437D02*
X2096Y1437D01*
X2119Y1437D02*
X2125Y1437D01*
X2162Y1437D02*
X2168Y1437D01*
X2190Y1437D02*
X2196Y1437D01*
X2213Y1437D02*
X2219Y1437D01*
X2240Y1437D02*
X2246Y1437D01*
X2270Y1437D02*
X2276Y1437D01*
X2313Y1437D02*
X2319Y1437D01*
X2340Y1437D02*
X2346Y1437D01*
X2415Y1437D02*
X2421Y1437D01*
X2435Y1437D02*
X2442Y1437D01*
X2514Y1437D02*
X2520Y1437D01*
X2541Y1437D02*
X2547Y1437D01*
X2614Y1437D02*
X2645Y1437D01*
X2664Y1437D02*
X2670Y1437D01*
X2715Y1437D02*
X2733Y1437D01*
X1015Y1436D02*
X1021Y1436D01*
X1035Y1436D02*
X1041Y1436D01*
X1073Y1436D02*
X1081Y1436D01*
X1115Y1436D02*
X1121Y1436D01*
X1135Y1436D02*
X1141Y1436D01*
X1222Y1436D02*
X1228Y1436D01*
X1259Y1436D02*
X1276Y1436D01*
X1309Y1436D02*
X1316Y1436D01*
X1359Y1436D02*
X1393Y1436D01*
X1475Y1436D02*
X1483Y1436D01*
X1510Y1436D02*
X1543Y1436D01*
X1560Y1436D02*
X1593Y1436D01*
X1610Y1436D02*
X1644Y1436D01*
X1661Y1436D02*
X1667Y1436D01*
X1711Y1436D02*
X1744Y1436D01*
X1761Y1436D02*
X1767Y1436D01*
X1788Y1436D02*
X1794Y1436D01*
X1811Y1436D02*
X1845Y1436D01*
X1911Y1436D02*
X1943Y1436D01*
X1975Y1436D02*
X1981Y1436D01*
X2012Y1436D02*
X2018Y1436D01*
X2039Y1436D02*
X2045Y1436D01*
X2062Y1436D02*
X2068Y1436D01*
X2090Y1436D02*
X2096Y1436D01*
X2119Y1436D02*
X2125Y1436D01*
X2162Y1436D02*
X2168Y1436D01*
X2190Y1436D02*
X2196Y1436D01*
X2213Y1436D02*
X2219Y1436D01*
X2240Y1436D02*
X2246Y1436D01*
X2270Y1436D02*
X2276Y1436D01*
X2313Y1436D02*
X2319Y1436D01*
X2340Y1436D02*
X2346Y1436D01*
X2415Y1436D02*
X2444Y1436D01*
X2514Y1436D02*
X2520Y1436D01*
X2541Y1436D02*
X2547Y1436D01*
X2614Y1436D02*
X2646Y1436D01*
X2664Y1436D02*
X2670Y1436D01*
X2715Y1436D02*
X2732Y1436D01*
X1015Y1435D02*
X1021Y1435D01*
X1034Y1435D02*
X1041Y1435D01*
X1074Y1435D02*
X1082Y1435D01*
X1115Y1435D02*
X1121Y1435D01*
X1135Y1435D02*
X1141Y1435D01*
X1222Y1435D02*
X1228Y1435D01*
X1259Y1435D02*
X1265Y1435D01*
X1310Y1435D02*
X1316Y1435D01*
X1359Y1435D02*
X1365Y1435D01*
X1387Y1435D02*
X1393Y1435D01*
X1476Y1435D02*
X1484Y1435D01*
X1510Y1435D02*
X1516Y1435D01*
X1537Y1435D02*
X1543Y1435D01*
X1560Y1435D02*
X1593Y1435D01*
X1610Y1435D02*
X1616Y1435D01*
X1638Y1435D02*
X1644Y1435D01*
X1661Y1435D02*
X1667Y1435D01*
X1711Y1435D02*
X1744Y1435D01*
X1761Y1435D02*
X1767Y1435D01*
X1788Y1435D02*
X1794Y1435D01*
X1811Y1435D02*
X1817Y1435D01*
X1839Y1435D02*
X1845Y1435D01*
X1911Y1435D02*
X1917Y1435D01*
X1935Y1435D02*
X1943Y1435D01*
X1975Y1435D02*
X1981Y1435D01*
X2012Y1435D02*
X2018Y1435D01*
X2039Y1435D02*
X2045Y1435D01*
X2062Y1435D02*
X2068Y1435D01*
X2090Y1435D02*
X2096Y1435D01*
X2119Y1435D02*
X2125Y1435D01*
X2162Y1435D02*
X2168Y1435D01*
X2190Y1435D02*
X2196Y1435D01*
X2213Y1435D02*
X2219Y1435D01*
X2240Y1435D02*
X2246Y1435D01*
X2270Y1435D02*
X2276Y1435D01*
X2313Y1435D02*
X2319Y1435D01*
X2340Y1435D02*
X2346Y1435D01*
X2415Y1435D02*
X2445Y1435D01*
X2514Y1435D02*
X2520Y1435D01*
X2541Y1435D02*
X2547Y1435D01*
X2614Y1435D02*
X2620Y1435D01*
X2638Y1435D02*
X2646Y1435D01*
X2664Y1435D02*
X2670Y1435D01*
X2715Y1435D02*
X2721Y1435D01*
X1015Y1434D02*
X1021Y1434D01*
X1034Y1434D02*
X1040Y1434D01*
X1075Y1434D02*
X1083Y1434D01*
X1115Y1434D02*
X1121Y1434D01*
X1134Y1434D02*
X1141Y1434D01*
X1222Y1434D02*
X1228Y1434D01*
X1259Y1434D02*
X1265Y1434D01*
X1310Y1434D02*
X1316Y1434D01*
X1359Y1434D02*
X1365Y1434D01*
X1387Y1434D02*
X1393Y1434D01*
X1476Y1434D02*
X1484Y1434D01*
X1510Y1434D02*
X1516Y1434D01*
X1537Y1434D02*
X1543Y1434D01*
X1561Y1434D02*
X1593Y1434D01*
X1610Y1434D02*
X1616Y1434D01*
X1638Y1434D02*
X1644Y1434D01*
X1661Y1434D02*
X1668Y1434D01*
X1711Y1434D02*
X1743Y1434D01*
X1761Y1434D02*
X1767Y1434D01*
X1788Y1434D02*
X1794Y1434D01*
X1811Y1434D02*
X1817Y1434D01*
X1839Y1434D02*
X1845Y1434D01*
X1911Y1434D02*
X1917Y1434D01*
X1936Y1434D02*
X1944Y1434D01*
X1975Y1434D02*
X1981Y1434D01*
X2012Y1434D02*
X2018Y1434D01*
X2039Y1434D02*
X2045Y1434D01*
X2062Y1434D02*
X2068Y1434D01*
X2089Y1434D02*
X2096Y1434D01*
X2119Y1434D02*
X2125Y1434D01*
X2162Y1434D02*
X2168Y1434D01*
X2190Y1434D02*
X2196Y1434D01*
X2213Y1434D02*
X2219Y1434D01*
X2240Y1434D02*
X2246Y1434D01*
X2270Y1434D02*
X2276Y1434D01*
X2313Y1434D02*
X2319Y1434D01*
X2340Y1434D02*
X2346Y1434D01*
X2415Y1434D02*
X2445Y1434D01*
X2514Y1434D02*
X2520Y1434D01*
X2541Y1434D02*
X2547Y1434D01*
X2614Y1434D02*
X2620Y1434D01*
X2639Y1434D02*
X2647Y1434D01*
X2664Y1434D02*
X2670Y1434D01*
X2715Y1434D02*
X2721Y1434D01*
X1015Y1433D02*
X1021Y1433D01*
X1033Y1433D02*
X1040Y1433D01*
X1075Y1433D02*
X1084Y1433D01*
X1115Y1433D02*
X1121Y1433D01*
X1134Y1433D02*
X1140Y1433D01*
X1222Y1433D02*
X1228Y1433D01*
X1259Y1433D02*
X1265Y1433D01*
X1310Y1433D02*
X1317Y1433D01*
X1359Y1433D02*
X1365Y1433D01*
X1387Y1433D02*
X1393Y1433D01*
X1477Y1433D02*
X1485Y1433D01*
X1510Y1433D02*
X1516Y1433D01*
X1537Y1433D02*
X1543Y1433D01*
X1562Y1433D02*
X1591Y1433D01*
X1610Y1433D02*
X1616Y1433D01*
X1638Y1433D02*
X1644Y1433D01*
X1662Y1433D02*
X1668Y1433D01*
X1713Y1433D02*
X1742Y1433D01*
X1761Y1433D02*
X1767Y1433D01*
X1788Y1433D02*
X1794Y1433D01*
X1811Y1433D02*
X1817Y1433D01*
X1839Y1433D02*
X1845Y1433D01*
X1911Y1433D02*
X1917Y1433D01*
X1937Y1433D02*
X1944Y1433D01*
X1975Y1433D02*
X1981Y1433D01*
X2012Y1433D02*
X2018Y1433D01*
X2039Y1433D02*
X2045Y1433D01*
X2062Y1433D02*
X2096Y1433D01*
X2119Y1433D02*
X2125Y1433D01*
X2162Y1433D02*
X2168Y1433D01*
X2190Y1433D02*
X2196Y1433D01*
X2213Y1433D02*
X2219Y1433D01*
X2240Y1433D02*
X2246Y1433D01*
X2270Y1433D02*
X2276Y1433D01*
X2313Y1433D02*
X2319Y1433D01*
X2340Y1433D02*
X2346Y1433D01*
X2415Y1433D02*
X2445Y1433D01*
X2475Y1433D02*
X2486Y1433D01*
X2514Y1433D02*
X2520Y1433D01*
X2541Y1433D02*
X2547Y1433D01*
X2614Y1433D02*
X2620Y1433D01*
X2640Y1433D02*
X2647Y1433D01*
X2664Y1433D02*
X2670Y1433D01*
X2715Y1433D02*
X2721Y1433D01*
X1015Y1432D02*
X1021Y1432D01*
X1033Y1432D02*
X1040Y1432D01*
X1076Y1432D02*
X1084Y1432D01*
X1115Y1432D02*
X1121Y1432D01*
X1133Y1432D02*
X1140Y1432D01*
X1222Y1432D02*
X1228Y1432D01*
X1259Y1432D02*
X1265Y1432D01*
X1311Y1432D02*
X1318Y1432D01*
X1359Y1432D02*
X1365Y1432D01*
X1387Y1432D02*
X1393Y1432D01*
X1478Y1432D02*
X1486Y1432D01*
X1510Y1432D02*
X1516Y1432D01*
X1537Y1432D02*
X1543Y1432D01*
X1610Y1432D02*
X1616Y1432D01*
X1638Y1432D02*
X1644Y1432D01*
X1662Y1432D02*
X1669Y1432D01*
X1761Y1432D02*
X1767Y1432D01*
X1788Y1432D02*
X1794Y1432D01*
X1811Y1432D02*
X1817Y1432D01*
X1839Y1432D02*
X1845Y1432D01*
X1911Y1432D02*
X1917Y1432D01*
X1938Y1432D02*
X1945Y1432D01*
X1975Y1432D02*
X1981Y1432D01*
X2012Y1432D02*
X2018Y1432D01*
X2039Y1432D02*
X2045Y1432D01*
X2062Y1432D02*
X2096Y1432D01*
X2119Y1432D02*
X2125Y1432D01*
X2162Y1432D02*
X2168Y1432D01*
X2190Y1432D02*
X2196Y1432D01*
X2213Y1432D02*
X2219Y1432D01*
X2240Y1432D02*
X2246Y1432D01*
X2270Y1432D02*
X2276Y1432D01*
X2313Y1432D02*
X2319Y1432D01*
X2340Y1432D02*
X2346Y1432D01*
X2415Y1432D02*
X2445Y1432D01*
X2474Y1432D02*
X2486Y1432D01*
X2514Y1432D02*
X2520Y1432D01*
X2541Y1432D02*
X2547Y1432D01*
X2614Y1432D02*
X2620Y1432D01*
X2641Y1432D02*
X2647Y1432D01*
X2664Y1432D02*
X2670Y1432D01*
X2715Y1432D02*
X2721Y1432D01*
X1015Y1431D02*
X1021Y1431D01*
X1032Y1431D02*
X1039Y1431D01*
X1077Y1431D02*
X1085Y1431D01*
X1115Y1431D02*
X1121Y1431D01*
X1133Y1431D02*
X1139Y1431D01*
X1222Y1431D02*
X1228Y1431D01*
X1259Y1431D02*
X1265Y1431D01*
X1311Y1431D02*
X1318Y1431D01*
X1359Y1431D02*
X1365Y1431D01*
X1387Y1431D02*
X1393Y1431D01*
X1479Y1431D02*
X1487Y1431D01*
X1510Y1431D02*
X1516Y1431D01*
X1537Y1431D02*
X1543Y1431D01*
X1610Y1431D02*
X1616Y1431D01*
X1638Y1431D02*
X1644Y1431D01*
X1663Y1431D02*
X1669Y1431D01*
X1761Y1431D02*
X1767Y1431D01*
X1788Y1431D02*
X1794Y1431D01*
X1811Y1431D02*
X1817Y1431D01*
X1839Y1431D02*
X1845Y1431D01*
X1911Y1431D02*
X1917Y1431D01*
X1939Y1431D02*
X1945Y1431D01*
X1975Y1431D02*
X1981Y1431D01*
X2012Y1431D02*
X2018Y1431D01*
X2039Y1431D02*
X2045Y1431D01*
X2062Y1431D02*
X2096Y1431D01*
X2119Y1431D02*
X2125Y1431D01*
X2162Y1431D02*
X2168Y1431D01*
X2190Y1431D02*
X2196Y1431D01*
X2213Y1431D02*
X2219Y1431D01*
X2240Y1431D02*
X2246Y1431D01*
X2270Y1431D02*
X2276Y1431D01*
X2313Y1431D02*
X2319Y1431D01*
X2340Y1431D02*
X2346Y1431D01*
X2415Y1431D02*
X2444Y1431D01*
X2474Y1431D02*
X2487Y1431D01*
X2514Y1431D02*
X2520Y1431D01*
X2541Y1431D02*
X2547Y1431D01*
X2614Y1431D02*
X2620Y1431D01*
X2641Y1431D02*
X2648Y1431D01*
X2664Y1431D02*
X2670Y1431D01*
X2715Y1431D02*
X2721Y1431D01*
X1015Y1430D02*
X1021Y1430D01*
X1032Y1430D02*
X1039Y1430D01*
X1078Y1430D02*
X1086Y1430D01*
X1115Y1430D02*
X1121Y1430D01*
X1132Y1430D02*
X1139Y1430D01*
X1222Y1430D02*
X1228Y1430D01*
X1259Y1430D02*
X1265Y1430D01*
X1312Y1430D02*
X1319Y1430D01*
X1359Y1430D02*
X1365Y1430D01*
X1387Y1430D02*
X1393Y1430D01*
X1479Y1430D02*
X1487Y1430D01*
X1510Y1430D02*
X1516Y1430D01*
X1537Y1430D02*
X1543Y1430D01*
X1610Y1430D02*
X1616Y1430D01*
X1638Y1430D02*
X1644Y1430D01*
X1663Y1430D02*
X1670Y1430D01*
X1761Y1430D02*
X1767Y1430D01*
X1788Y1430D02*
X1794Y1430D01*
X1811Y1430D02*
X1817Y1430D01*
X1839Y1430D02*
X1845Y1430D01*
X1911Y1430D02*
X1917Y1430D01*
X1939Y1430D02*
X1945Y1430D01*
X1975Y1430D02*
X1981Y1430D01*
X2012Y1430D02*
X2018Y1430D01*
X2039Y1430D02*
X2045Y1430D01*
X2062Y1430D02*
X2095Y1430D01*
X2119Y1430D02*
X2125Y1430D01*
X2162Y1430D02*
X2168Y1430D01*
X2190Y1430D02*
X2196Y1430D01*
X2213Y1430D02*
X2219Y1430D01*
X2240Y1430D02*
X2246Y1430D01*
X2270Y1430D02*
X2276Y1430D01*
X2313Y1430D02*
X2319Y1430D01*
X2340Y1430D02*
X2346Y1430D01*
X2415Y1430D02*
X2442Y1430D01*
X2474Y1430D02*
X2487Y1430D01*
X2514Y1430D02*
X2520Y1430D01*
X2541Y1430D02*
X2547Y1430D01*
X2614Y1430D02*
X2620Y1430D01*
X2642Y1430D02*
X2648Y1430D01*
X2664Y1430D02*
X2670Y1430D01*
X2715Y1430D02*
X2721Y1430D01*
X1015Y1429D02*
X1021Y1429D01*
X1031Y1429D02*
X1038Y1429D01*
X1079Y1429D02*
X1087Y1429D01*
X1115Y1429D02*
X1121Y1429D01*
X1132Y1429D02*
X1138Y1429D01*
X1222Y1429D02*
X1228Y1429D01*
X1259Y1429D02*
X1265Y1429D01*
X1312Y1429D02*
X1319Y1429D01*
X1359Y1429D02*
X1365Y1429D01*
X1387Y1429D02*
X1393Y1429D01*
X1480Y1429D02*
X1488Y1429D01*
X1510Y1429D02*
X1516Y1429D01*
X1537Y1429D02*
X1543Y1429D01*
X1610Y1429D02*
X1616Y1429D01*
X1638Y1429D02*
X1644Y1429D01*
X1664Y1429D02*
X1670Y1429D01*
X1761Y1429D02*
X1767Y1429D01*
X1788Y1429D02*
X1794Y1429D01*
X1811Y1429D02*
X1817Y1429D01*
X1839Y1429D02*
X1845Y1429D01*
X1911Y1429D02*
X1917Y1429D01*
X1939Y1429D02*
X1945Y1429D01*
X1975Y1429D02*
X1981Y1429D01*
X2012Y1429D02*
X2018Y1429D01*
X2039Y1429D02*
X2045Y1429D01*
X2062Y1429D02*
X2095Y1429D01*
X2119Y1429D02*
X2125Y1429D01*
X2162Y1429D02*
X2168Y1429D01*
X2190Y1429D02*
X2196Y1429D01*
X2213Y1429D02*
X2219Y1429D01*
X2240Y1429D02*
X2246Y1429D01*
X2270Y1429D02*
X2276Y1429D01*
X2313Y1429D02*
X2319Y1429D01*
X2340Y1429D02*
X2346Y1429D01*
X2436Y1429D02*
X2442Y1429D01*
X2474Y1429D02*
X2487Y1429D01*
X2514Y1429D02*
X2520Y1429D01*
X2541Y1429D02*
X2547Y1429D01*
X2614Y1429D02*
X2620Y1429D01*
X2642Y1429D02*
X2648Y1429D01*
X2664Y1429D02*
X2670Y1429D01*
X2715Y1429D02*
X2721Y1429D01*
X1015Y1428D02*
X1021Y1428D01*
X1031Y1428D02*
X1038Y1428D01*
X1079Y1428D02*
X1087Y1428D01*
X1115Y1428D02*
X1121Y1428D01*
X1131Y1428D02*
X1138Y1428D01*
X1222Y1428D02*
X1228Y1428D01*
X1259Y1428D02*
X1265Y1428D01*
X1313Y1428D02*
X1320Y1428D01*
X1359Y1428D02*
X1365Y1428D01*
X1387Y1428D02*
X1393Y1428D01*
X1481Y1428D02*
X1489Y1428D01*
X1510Y1428D02*
X1516Y1428D01*
X1537Y1428D02*
X1543Y1428D01*
X1610Y1428D02*
X1616Y1428D01*
X1638Y1428D02*
X1644Y1428D01*
X1664Y1428D02*
X1671Y1428D01*
X1761Y1428D02*
X1767Y1428D01*
X1788Y1428D02*
X1794Y1428D01*
X1811Y1428D02*
X1817Y1428D01*
X1839Y1428D02*
X1845Y1428D01*
X1911Y1428D02*
X1917Y1428D01*
X1939Y1428D02*
X1945Y1428D01*
X1975Y1428D02*
X1981Y1428D01*
X2012Y1428D02*
X2018Y1428D01*
X2039Y1428D02*
X2045Y1428D01*
X2062Y1428D02*
X2095Y1428D01*
X2119Y1428D02*
X2125Y1428D01*
X2162Y1428D02*
X2168Y1428D01*
X2190Y1428D02*
X2196Y1428D01*
X2213Y1428D02*
X2219Y1428D01*
X2240Y1428D02*
X2246Y1428D01*
X2270Y1428D02*
X2276Y1428D01*
X2313Y1428D02*
X2319Y1428D01*
X2340Y1428D02*
X2346Y1428D01*
X2436Y1428D02*
X2442Y1428D01*
X2474Y1428D02*
X2487Y1428D01*
X2514Y1428D02*
X2520Y1428D01*
X2541Y1428D02*
X2547Y1428D01*
X2614Y1428D02*
X2620Y1428D01*
X2642Y1428D02*
X2648Y1428D01*
X2664Y1428D02*
X2670Y1428D01*
X2715Y1428D02*
X2721Y1428D01*
X1015Y1427D02*
X1021Y1427D01*
X1030Y1427D02*
X1037Y1427D01*
X1080Y1427D02*
X1088Y1427D01*
X1115Y1427D02*
X1121Y1427D01*
X1131Y1427D02*
X1137Y1427D01*
X1222Y1427D02*
X1228Y1427D01*
X1259Y1427D02*
X1265Y1427D01*
X1313Y1427D02*
X1320Y1427D01*
X1359Y1427D02*
X1365Y1427D01*
X1387Y1427D02*
X1393Y1427D01*
X1482Y1427D02*
X1490Y1427D01*
X1510Y1427D02*
X1516Y1427D01*
X1537Y1427D02*
X1543Y1427D01*
X1610Y1427D02*
X1616Y1427D01*
X1638Y1427D02*
X1644Y1427D01*
X1665Y1427D02*
X1671Y1427D01*
X1761Y1427D02*
X1767Y1427D01*
X1788Y1427D02*
X1794Y1427D01*
X1811Y1427D02*
X1817Y1427D01*
X1839Y1427D02*
X1845Y1427D01*
X1911Y1427D02*
X1917Y1427D01*
X1939Y1427D02*
X1945Y1427D01*
X1975Y1427D02*
X1981Y1427D01*
X2012Y1427D02*
X2018Y1427D01*
X2039Y1427D02*
X2045Y1427D01*
X2062Y1427D02*
X2093Y1427D01*
X2119Y1427D02*
X2125Y1427D01*
X2162Y1427D02*
X2168Y1427D01*
X2190Y1427D02*
X2196Y1427D01*
X2213Y1427D02*
X2219Y1427D01*
X2240Y1427D02*
X2246Y1427D01*
X2270Y1427D02*
X2276Y1427D01*
X2313Y1427D02*
X2319Y1427D01*
X2340Y1427D02*
X2346Y1427D01*
X2436Y1427D02*
X2442Y1427D01*
X2474Y1427D02*
X2487Y1427D01*
X2514Y1427D02*
X2520Y1427D01*
X2541Y1427D02*
X2547Y1427D01*
X2614Y1427D02*
X2620Y1427D01*
X2642Y1427D02*
X2648Y1427D01*
X2664Y1427D02*
X2670Y1427D01*
X2715Y1427D02*
X2721Y1427D01*
X1015Y1426D02*
X1021Y1426D01*
X1030Y1426D02*
X1037Y1426D01*
X1081Y1426D02*
X1089Y1426D01*
X1115Y1426D02*
X1121Y1426D01*
X1130Y1426D02*
X1137Y1426D01*
X1222Y1426D02*
X1228Y1426D01*
X1259Y1426D02*
X1265Y1426D01*
X1314Y1426D02*
X1321Y1426D01*
X1359Y1426D02*
X1365Y1426D01*
X1387Y1426D02*
X1393Y1426D01*
X1483Y1426D02*
X1491Y1426D01*
X1510Y1426D02*
X1516Y1426D01*
X1537Y1426D02*
X1543Y1426D01*
X1610Y1426D02*
X1616Y1426D01*
X1638Y1426D02*
X1644Y1426D01*
X1665Y1426D02*
X1672Y1426D01*
X1761Y1426D02*
X1767Y1426D01*
X1788Y1426D02*
X1794Y1426D01*
X1811Y1426D02*
X1817Y1426D01*
X1839Y1426D02*
X1845Y1426D01*
X1911Y1426D02*
X1917Y1426D01*
X1939Y1426D02*
X1945Y1426D01*
X1975Y1426D02*
X1981Y1426D01*
X2012Y1426D02*
X2018Y1426D01*
X2039Y1426D02*
X2045Y1426D01*
X2062Y1426D02*
X2068Y1426D01*
X2119Y1426D02*
X2125Y1426D01*
X2162Y1426D02*
X2168Y1426D01*
X2190Y1426D02*
X2196Y1426D01*
X2213Y1426D02*
X2219Y1426D01*
X2240Y1426D02*
X2246Y1426D01*
X2270Y1426D02*
X2276Y1426D01*
X2313Y1426D02*
X2319Y1426D01*
X2340Y1426D02*
X2346Y1426D01*
X2436Y1426D02*
X2442Y1426D01*
X2474Y1426D02*
X2487Y1426D01*
X2514Y1426D02*
X2520Y1426D01*
X2541Y1426D02*
X2547Y1426D01*
X2614Y1426D02*
X2620Y1426D01*
X2642Y1426D02*
X2648Y1426D01*
X2664Y1426D02*
X2670Y1426D01*
X2715Y1426D02*
X2721Y1426D01*
X1015Y1425D02*
X1021Y1425D01*
X1029Y1425D02*
X1036Y1425D01*
X1061Y1425D02*
X1061Y1425D01*
X1082Y1425D02*
X1090Y1425D01*
X1115Y1425D02*
X1121Y1425D01*
X1130Y1425D02*
X1136Y1425D01*
X1222Y1425D02*
X1228Y1425D01*
X1259Y1425D02*
X1265Y1425D01*
X1314Y1425D02*
X1321Y1425D01*
X1359Y1425D02*
X1365Y1425D01*
X1387Y1425D02*
X1393Y1425D01*
X1483Y1425D02*
X1491Y1425D01*
X1510Y1425D02*
X1516Y1425D01*
X1537Y1425D02*
X1543Y1425D01*
X1610Y1425D02*
X1616Y1425D01*
X1638Y1425D02*
X1644Y1425D01*
X1666Y1425D02*
X1672Y1425D01*
X1761Y1425D02*
X1767Y1425D01*
X1788Y1425D02*
X1794Y1425D01*
X1811Y1425D02*
X1817Y1425D01*
X1839Y1425D02*
X1845Y1425D01*
X1911Y1425D02*
X1917Y1425D01*
X1939Y1425D02*
X1945Y1425D01*
X1975Y1425D02*
X1981Y1425D01*
X2013Y1425D02*
X2019Y1425D01*
X2037Y1425D02*
X2045Y1425D01*
X2062Y1425D02*
X2068Y1425D01*
X2119Y1425D02*
X2125Y1425D01*
X2143Y1425D02*
X2143Y1425D01*
X2162Y1425D02*
X2168Y1425D01*
X2190Y1425D02*
X2196Y1425D01*
X2213Y1425D02*
X2219Y1425D01*
X2240Y1425D02*
X2246Y1425D01*
X2270Y1425D02*
X2276Y1425D01*
X2293Y1425D02*
X2293Y1425D01*
X2313Y1425D02*
X2319Y1425D01*
X2340Y1425D02*
X2346Y1425D01*
X2436Y1425D02*
X2442Y1425D01*
X2474Y1425D02*
X2487Y1425D01*
X2514Y1425D02*
X2520Y1425D01*
X2541Y1425D02*
X2547Y1425D01*
X2614Y1425D02*
X2620Y1425D01*
X2642Y1425D02*
X2648Y1425D01*
X2664Y1425D02*
X2670Y1425D01*
X2715Y1425D02*
X2721Y1425D01*
X1015Y1424D02*
X1021Y1424D01*
X1029Y1424D02*
X1036Y1424D01*
X1059Y1424D02*
X1063Y1424D01*
X1082Y1424D02*
X1090Y1424D01*
X1115Y1424D02*
X1121Y1424D01*
X1129Y1424D02*
X1136Y1424D01*
X1222Y1424D02*
X1228Y1424D01*
X1259Y1424D02*
X1265Y1424D01*
X1315Y1424D02*
X1322Y1424D01*
X1359Y1424D02*
X1365Y1424D01*
X1387Y1424D02*
X1393Y1424D01*
X1461Y1424D02*
X1464Y1424D01*
X1484Y1424D02*
X1492Y1424D01*
X1510Y1424D02*
X1516Y1424D01*
X1537Y1424D02*
X1543Y1424D01*
X1610Y1424D02*
X1616Y1424D01*
X1638Y1424D02*
X1644Y1424D01*
X1666Y1424D02*
X1673Y1424D01*
X1761Y1424D02*
X1767Y1424D01*
X1788Y1424D02*
X1794Y1424D01*
X1811Y1424D02*
X1817Y1424D01*
X1839Y1424D02*
X1845Y1424D01*
X1911Y1424D02*
X1917Y1424D01*
X1939Y1424D02*
X1945Y1424D01*
X1975Y1424D02*
X1981Y1424D01*
X2013Y1424D02*
X2019Y1424D01*
X2036Y1424D02*
X2045Y1424D01*
X2062Y1424D02*
X2068Y1424D01*
X2119Y1424D02*
X2125Y1424D01*
X2141Y1424D02*
X2145Y1424D01*
X2162Y1424D02*
X2169Y1424D01*
X2190Y1424D02*
X2196Y1424D01*
X2213Y1424D02*
X2219Y1424D01*
X2240Y1424D02*
X2246Y1424D01*
X2270Y1424D02*
X2276Y1424D01*
X2291Y1424D02*
X2295Y1424D01*
X2313Y1424D02*
X2319Y1424D01*
X2340Y1424D02*
X2346Y1424D01*
X2436Y1424D02*
X2442Y1424D01*
X2474Y1424D02*
X2487Y1424D01*
X2514Y1424D02*
X2520Y1424D01*
X2541Y1424D02*
X2547Y1424D01*
X2614Y1424D02*
X2620Y1424D01*
X2641Y1424D02*
X2648Y1424D01*
X2664Y1424D02*
X2670Y1424D01*
X2715Y1424D02*
X2721Y1424D01*
X1015Y1423D02*
X1021Y1423D01*
X1028Y1423D02*
X1035Y1423D01*
X1058Y1423D02*
X1064Y1423D01*
X1083Y1423D02*
X1091Y1423D01*
X1115Y1423D02*
X1121Y1423D01*
X1129Y1423D02*
X1135Y1423D01*
X1222Y1423D02*
X1228Y1423D01*
X1259Y1423D02*
X1265Y1423D01*
X1315Y1423D02*
X1322Y1423D01*
X1359Y1423D02*
X1365Y1423D01*
X1387Y1423D02*
X1393Y1423D01*
X1460Y1423D02*
X1465Y1423D01*
X1485Y1423D02*
X1493Y1423D01*
X1510Y1423D02*
X1516Y1423D01*
X1537Y1423D02*
X1543Y1423D01*
X1610Y1423D02*
X1616Y1423D01*
X1638Y1423D02*
X1644Y1423D01*
X1667Y1423D02*
X1673Y1423D01*
X1761Y1423D02*
X1767Y1423D01*
X1788Y1423D02*
X1794Y1423D01*
X1811Y1423D02*
X1817Y1423D01*
X1839Y1423D02*
X1845Y1423D01*
X1911Y1423D02*
X1917Y1423D01*
X1938Y1423D02*
X1945Y1423D01*
X1975Y1423D02*
X1981Y1423D01*
X2013Y1423D02*
X2019Y1423D01*
X2034Y1423D02*
X2045Y1423D01*
X2062Y1423D02*
X2069Y1423D01*
X2119Y1423D02*
X2125Y1423D01*
X2140Y1423D02*
X2145Y1423D01*
X2163Y1423D02*
X2169Y1423D01*
X2189Y1423D02*
X2196Y1423D01*
X2213Y1423D02*
X2219Y1423D01*
X2240Y1423D02*
X2246Y1423D01*
X2270Y1423D02*
X2276Y1423D01*
X2291Y1423D02*
X2296Y1423D01*
X2313Y1423D02*
X2319Y1423D01*
X2340Y1423D02*
X2346Y1423D01*
X2436Y1423D02*
X2442Y1423D01*
X2474Y1423D02*
X2486Y1423D01*
X2514Y1423D02*
X2520Y1423D01*
X2541Y1423D02*
X2547Y1423D01*
X2614Y1423D02*
X2620Y1423D01*
X2641Y1423D02*
X2647Y1423D01*
X2664Y1423D02*
X2670Y1423D01*
X2715Y1423D02*
X2721Y1423D01*
X1015Y1422D02*
X1021Y1422D01*
X1028Y1422D02*
X1035Y1422D01*
X1058Y1422D02*
X1064Y1422D01*
X1084Y1422D02*
X1091Y1422D01*
X1115Y1422D02*
X1121Y1422D01*
X1128Y1422D02*
X1135Y1422D01*
X1222Y1422D02*
X1228Y1422D01*
X1259Y1422D02*
X1265Y1422D01*
X1316Y1422D02*
X1323Y1422D01*
X1359Y1422D02*
X1365Y1422D01*
X1387Y1422D02*
X1393Y1422D01*
X1460Y1422D02*
X1465Y1422D01*
X1486Y1422D02*
X1493Y1422D01*
X1510Y1422D02*
X1516Y1422D01*
X1537Y1422D02*
X1543Y1422D01*
X1610Y1422D02*
X1616Y1422D01*
X1638Y1422D02*
X1644Y1422D01*
X1667Y1422D02*
X1674Y1422D01*
X1761Y1422D02*
X1767Y1422D01*
X1788Y1422D02*
X1794Y1422D01*
X1811Y1422D02*
X1817Y1422D01*
X1839Y1422D02*
X1845Y1422D01*
X1911Y1422D02*
X1917Y1422D01*
X1937Y1422D02*
X1944Y1422D01*
X1975Y1422D02*
X1981Y1422D01*
X2013Y1422D02*
X2019Y1422D01*
X2032Y1422D02*
X2045Y1422D01*
X2062Y1422D02*
X2069Y1422D01*
X2119Y1422D02*
X2125Y1422D01*
X2140Y1422D02*
X2146Y1422D01*
X2163Y1422D02*
X2170Y1422D01*
X2189Y1422D02*
X2196Y1422D01*
X2213Y1422D02*
X2220Y1422D01*
X2239Y1422D02*
X2246Y1422D01*
X2270Y1422D02*
X2276Y1422D01*
X2290Y1422D02*
X2296Y1422D01*
X2313Y1422D02*
X2319Y1422D01*
X2340Y1422D02*
X2346Y1422D01*
X2436Y1422D02*
X2442Y1422D01*
X2475Y1422D02*
X2486Y1422D01*
X2514Y1422D02*
X2520Y1422D01*
X2541Y1422D02*
X2547Y1422D01*
X2614Y1422D02*
X2620Y1422D01*
X2640Y1422D02*
X2647Y1422D01*
X2664Y1422D02*
X2670Y1422D01*
X2715Y1422D02*
X2721Y1422D01*
X1015Y1421D02*
X1021Y1421D01*
X1027Y1421D02*
X1034Y1421D01*
X1058Y1421D02*
X1064Y1421D01*
X1085Y1421D02*
X1091Y1421D01*
X1115Y1421D02*
X1121Y1421D01*
X1128Y1421D02*
X1135Y1421D01*
X1222Y1421D02*
X1228Y1421D01*
X1259Y1421D02*
X1265Y1421D01*
X1316Y1421D02*
X1323Y1421D01*
X1359Y1421D02*
X1365Y1421D01*
X1387Y1421D02*
X1393Y1421D01*
X1460Y1421D02*
X1466Y1421D01*
X1486Y1421D02*
X1493Y1421D01*
X1510Y1421D02*
X1516Y1421D01*
X1537Y1421D02*
X1543Y1421D01*
X1610Y1421D02*
X1616Y1421D01*
X1638Y1421D02*
X1644Y1421D01*
X1668Y1421D02*
X1675Y1421D01*
X1761Y1421D02*
X1767Y1421D01*
X1788Y1421D02*
X1794Y1421D01*
X1811Y1421D02*
X1817Y1421D01*
X1839Y1421D02*
X1845Y1421D01*
X1911Y1421D02*
X1917Y1421D01*
X1936Y1421D02*
X1944Y1421D01*
X1975Y1421D02*
X1981Y1421D01*
X2013Y1421D02*
X2019Y1421D01*
X2031Y1421D02*
X2045Y1421D01*
X2063Y1421D02*
X2070Y1421D01*
X2119Y1421D02*
X2126Y1421D01*
X2139Y1421D02*
X2146Y1421D01*
X2163Y1421D02*
X2171Y1421D01*
X2187Y1421D02*
X2195Y1421D01*
X2213Y1421D02*
X2221Y1421D01*
X2238Y1421D02*
X2245Y1421D01*
X2270Y1421D02*
X2276Y1421D01*
X2290Y1421D02*
X2296Y1421D01*
X2313Y1421D02*
X2319Y1421D01*
X2340Y1421D02*
X2346Y1421D01*
X2436Y1421D02*
X2442Y1421D01*
X2477Y1421D02*
X2483Y1421D01*
X2514Y1421D02*
X2520Y1421D01*
X2541Y1421D02*
X2547Y1421D01*
X2614Y1421D02*
X2620Y1421D01*
X2639Y1421D02*
X2647Y1421D01*
X2664Y1421D02*
X2670Y1421D01*
X2715Y1421D02*
X2721Y1421D01*
X1015Y1420D02*
X1021Y1420D01*
X1026Y1420D02*
X1034Y1420D01*
X1058Y1420D02*
X1065Y1420D01*
X1085Y1420D02*
X1092Y1420D01*
X1115Y1420D02*
X1121Y1420D01*
X1127Y1420D02*
X1134Y1420D01*
X1222Y1420D02*
X1228Y1420D01*
X1259Y1420D02*
X1265Y1420D01*
X1317Y1420D02*
X1324Y1420D01*
X1359Y1420D02*
X1365Y1420D01*
X1387Y1420D02*
X1393Y1420D01*
X1460Y1420D02*
X1466Y1420D01*
X1487Y1420D02*
X1493Y1420D01*
X1510Y1420D02*
X1516Y1420D01*
X1537Y1420D02*
X1543Y1420D01*
X1610Y1420D02*
X1616Y1420D01*
X1638Y1420D02*
X1644Y1420D01*
X1668Y1420D02*
X1675Y1420D01*
X1761Y1420D02*
X1767Y1420D01*
X1788Y1420D02*
X1794Y1420D01*
X1811Y1420D02*
X1817Y1420D01*
X1839Y1420D02*
X1845Y1420D01*
X1911Y1420D02*
X1917Y1420D01*
X1935Y1420D02*
X1943Y1420D01*
X1975Y1420D02*
X1981Y1420D01*
X2013Y1420D02*
X2020Y1420D01*
X2029Y1420D02*
X2045Y1420D01*
X2063Y1420D02*
X2072Y1420D01*
X2119Y1420D02*
X2126Y1420D01*
X2138Y1420D02*
X2145Y1420D01*
X2163Y1420D02*
X2172Y1420D01*
X2186Y1420D02*
X2195Y1420D01*
X2214Y1420D02*
X2222Y1420D01*
X2236Y1420D02*
X2245Y1420D01*
X2270Y1420D02*
X2277Y1420D01*
X2289Y1420D02*
X2296Y1420D01*
X2313Y1420D02*
X2319Y1420D01*
X2340Y1420D02*
X2346Y1420D01*
X2436Y1420D02*
X2442Y1420D01*
X2514Y1420D02*
X2520Y1420D01*
X2541Y1420D02*
X2547Y1420D01*
X2614Y1420D02*
X2620Y1420D01*
X2638Y1420D02*
X2646Y1420D01*
X2664Y1420D02*
X2670Y1420D01*
X2715Y1420D02*
X2721Y1420D01*
X1010Y1419D02*
X1033Y1419D01*
X1058Y1419D02*
X1091Y1419D01*
X1111Y1419D02*
X1134Y1419D01*
X1222Y1419D02*
X1228Y1419D01*
X1259Y1419D02*
X1290Y1419D01*
X1317Y1419D02*
X1340Y1419D01*
X1359Y1419D02*
X1365Y1419D01*
X1387Y1419D02*
X1393Y1419D01*
X1460Y1419D02*
X1493Y1419D01*
X1510Y1419D02*
X1516Y1419D01*
X1537Y1419D02*
X1543Y1419D01*
X1610Y1419D02*
X1616Y1419D01*
X1638Y1419D02*
X1644Y1419D01*
X1669Y1419D02*
X1691Y1419D01*
X1761Y1419D02*
X1794Y1419D01*
X1811Y1419D02*
X1845Y1419D01*
X1911Y1419D02*
X1943Y1419D01*
X1968Y1419D02*
X1989Y1419D01*
X2013Y1419D02*
X2045Y1419D01*
X2064Y1419D02*
X2093Y1419D01*
X2120Y1419D02*
X2145Y1419D01*
X2164Y1419D02*
X2194Y1419D01*
X2214Y1419D02*
X2244Y1419D01*
X2270Y1419D02*
X2296Y1419D01*
X2313Y1419D02*
X2319Y1419D01*
X2340Y1419D02*
X2346Y1419D01*
X2436Y1419D02*
X2442Y1419D01*
X2514Y1419D02*
X2547Y1419D01*
X2614Y1419D02*
X2646Y1419D01*
X2664Y1419D02*
X2695Y1419D01*
X2715Y1419D02*
X2746Y1419D01*
X1009Y1418D02*
X1033Y1418D01*
X1059Y1418D02*
X1091Y1418D01*
X1109Y1418D02*
X1133Y1418D01*
X1222Y1418D02*
X1228Y1418D01*
X1259Y1418D02*
X1291Y1418D01*
X1318Y1418D02*
X1342Y1418D01*
X1359Y1418D02*
X1365Y1418D01*
X1387Y1418D02*
X1393Y1418D01*
X1460Y1418D02*
X1493Y1418D01*
X1510Y1418D02*
X1516Y1418D01*
X1537Y1418D02*
X1543Y1418D01*
X1610Y1418D02*
X1616Y1418D01*
X1638Y1418D02*
X1644Y1418D01*
X1669Y1418D02*
X1693Y1418D01*
X1761Y1418D02*
X1794Y1418D01*
X1811Y1418D02*
X1844Y1418D01*
X1911Y1418D02*
X1942Y1418D01*
X1966Y1418D02*
X1991Y1418D01*
X2014Y1418D02*
X2045Y1418D01*
X2064Y1418D02*
X2095Y1418D01*
X2120Y1418D02*
X2145Y1418D01*
X2165Y1418D02*
X2193Y1418D01*
X2215Y1418D02*
X2243Y1418D01*
X2271Y1418D02*
X2295Y1418D01*
X2313Y1418D02*
X2319Y1418D01*
X2340Y1418D02*
X2346Y1418D01*
X2436Y1418D02*
X2442Y1418D01*
X2514Y1418D02*
X2547Y1418D01*
X2614Y1418D02*
X2645Y1418D01*
X2664Y1418D02*
X2697Y1418D01*
X2715Y1418D02*
X2747Y1418D01*
X1008Y1417D02*
X1032Y1417D01*
X1059Y1417D02*
X1091Y1417D01*
X1108Y1417D02*
X1132Y1417D01*
X1222Y1417D02*
X1228Y1417D01*
X1259Y1417D02*
X1292Y1417D01*
X1318Y1417D02*
X1342Y1417D01*
X1359Y1417D02*
X1365Y1417D01*
X1387Y1417D02*
X1393Y1417D01*
X1461Y1417D02*
X1492Y1417D01*
X1510Y1417D02*
X1516Y1417D01*
X1537Y1417D02*
X1543Y1417D01*
X1610Y1417D02*
X1616Y1417D01*
X1638Y1417D02*
X1644Y1417D01*
X1670Y1417D02*
X1694Y1417D01*
X1761Y1417D02*
X1794Y1417D01*
X1811Y1417D02*
X1844Y1417D01*
X1911Y1417D02*
X1941Y1417D01*
X1965Y1417D02*
X1991Y1417D01*
X2014Y1417D02*
X2037Y1417D01*
X2039Y1417D02*
X2045Y1417D01*
X2065Y1417D02*
X2095Y1417D01*
X2121Y1417D02*
X2144Y1417D01*
X2166Y1417D02*
X2192Y1417D01*
X2216Y1417D02*
X2243Y1417D01*
X2271Y1417D02*
X2295Y1417D01*
X2313Y1417D02*
X2319Y1417D01*
X2340Y1417D02*
X2346Y1417D01*
X2436Y1417D02*
X2442Y1417D01*
X2514Y1417D02*
X2547Y1417D01*
X2614Y1417D02*
X2644Y1417D01*
X2664Y1417D02*
X2698Y1417D01*
X2715Y1417D02*
X2748Y1417D01*
X1008Y1416D02*
X1031Y1416D01*
X1060Y1416D02*
X1090Y1416D01*
X1108Y1416D02*
X1132Y1416D01*
X1222Y1416D02*
X1228Y1416D01*
X1259Y1416D02*
X1292Y1416D01*
X1319Y1416D02*
X1342Y1416D01*
X1359Y1416D02*
X1365Y1416D01*
X1387Y1416D02*
X1393Y1416D01*
X1461Y1416D02*
X1492Y1416D01*
X1510Y1416D02*
X1516Y1416D01*
X1537Y1416D02*
X1543Y1416D01*
X1610Y1416D02*
X1616Y1416D01*
X1638Y1416D02*
X1644Y1416D01*
X1670Y1416D02*
X1694Y1416D01*
X1762Y1416D02*
X1794Y1416D01*
X1812Y1416D02*
X1844Y1416D01*
X1911Y1416D02*
X1940Y1416D01*
X1965Y1416D02*
X1992Y1416D01*
X2015Y1416D02*
X2035Y1416D01*
X2039Y1416D02*
X2045Y1416D01*
X2066Y1416D02*
X2095Y1416D01*
X2121Y1416D02*
X2143Y1416D01*
X2167Y1416D02*
X2191Y1416D01*
X2217Y1416D02*
X2241Y1416D01*
X2272Y1416D02*
X2294Y1416D01*
X2313Y1416D02*
X2319Y1416D01*
X2341Y1416D02*
X2346Y1416D01*
X2436Y1416D02*
X2442Y1416D01*
X2515Y1416D02*
X2547Y1416D01*
X2614Y1416D02*
X2643Y1416D01*
X2664Y1416D02*
X2698Y1416D01*
X2715Y1416D02*
X2748Y1416D01*
X1008Y1415D02*
X1030Y1415D01*
X1061Y1415D02*
X1090Y1415D01*
X1108Y1415D02*
X1131Y1415D01*
X1222Y1415D02*
X1228Y1415D01*
X1259Y1415D02*
X1292Y1415D01*
X1320Y1415D02*
X1342Y1415D01*
X1359Y1415D02*
X1365Y1415D01*
X1387Y1415D02*
X1393Y1415D01*
X1462Y1415D02*
X1491Y1415D01*
X1510Y1415D02*
X1516Y1415D01*
X1537Y1415D02*
X1543Y1415D01*
X1610Y1415D02*
X1616Y1415D01*
X1638Y1415D02*
X1644Y1415D01*
X1672Y1415D02*
X1694Y1415D01*
X1762Y1415D02*
X1793Y1415D01*
X1812Y1415D02*
X1843Y1415D01*
X1911Y1415D02*
X1939Y1415D01*
X1965Y1415D02*
X1992Y1415D01*
X2016Y1415D02*
X2033Y1415D01*
X2039Y1415D02*
X2045Y1415D01*
X2068Y1415D02*
X2095Y1415D01*
X2122Y1415D02*
X2142Y1415D01*
X2168Y1415D02*
X2190Y1415D01*
X2218Y1415D02*
X2240Y1415D01*
X2273Y1415D02*
X2293Y1415D01*
X2313Y1415D02*
X2319Y1415D01*
X2341Y1415D02*
X2346Y1415D01*
X2436Y1415D02*
X2442Y1415D01*
X2515Y1415D02*
X2546Y1415D01*
X2614Y1415D02*
X2642Y1415D01*
X2664Y1415D02*
X2698Y1415D01*
X2715Y1415D02*
X2748Y1415D01*
X1008Y1414D02*
X1029Y1414D01*
X1062Y1414D02*
X1089Y1414D01*
X1109Y1414D02*
X1129Y1414D01*
X1223Y1414D02*
X1228Y1414D01*
X1259Y1414D02*
X1292Y1414D01*
X1321Y1414D02*
X1342Y1414D01*
X1360Y1414D02*
X1365Y1414D01*
X1387Y1414D02*
X1392Y1414D01*
X1463Y1414D02*
X1490Y1414D01*
X1510Y1414D02*
X1515Y1414D01*
X1538Y1414D02*
X1543Y1414D01*
X1611Y1414D02*
X1616Y1414D01*
X1638Y1414D02*
X1643Y1414D01*
X1673Y1414D02*
X1693Y1414D01*
X1763Y1414D02*
X1792Y1414D01*
X1813Y1414D02*
X1842Y1414D01*
X1911Y1414D02*
X1938Y1414D01*
X1965Y1414D02*
X1991Y1414D01*
X2017Y1414D02*
X2032Y1414D01*
X2040Y1414D02*
X2045Y1414D01*
X2069Y1414D02*
X2095Y1414D01*
X2124Y1414D02*
X2141Y1414D01*
X2169Y1414D02*
X2189Y1414D01*
X2220Y1414D02*
X2239Y1414D01*
X2274Y1414D02*
X2292Y1414D01*
X2313Y1414D02*
X2318Y1414D01*
X2341Y1414D02*
X2346Y1414D01*
X2436Y1414D02*
X2441Y1414D01*
X2516Y1414D02*
X2545Y1414D01*
X2614Y1414D02*
X2641Y1414D01*
X2664Y1414D02*
X2697Y1414D01*
X2715Y1414D02*
X2748Y1414D01*
X1009Y1413D02*
X1027Y1413D01*
X1064Y1413D02*
X1087Y1413D01*
X1109Y1413D02*
X1127Y1413D01*
X1224Y1413D02*
X1227Y1413D01*
X1259Y1413D02*
X1291Y1413D01*
X1323Y1413D02*
X1341Y1413D01*
X1360Y1413D02*
X1364Y1413D01*
X1388Y1413D02*
X1391Y1413D01*
X1465Y1413D02*
X1489Y1413D01*
X1511Y1413D02*
X1514Y1413D01*
X1539Y1413D02*
X1542Y1413D01*
X1611Y1413D02*
X1615Y1413D01*
X1639Y1413D02*
X1642Y1413D01*
X1675Y1413D02*
X1693Y1413D01*
X1765Y1413D02*
X1791Y1413D01*
X1815Y1413D02*
X1841Y1413D01*
X1911Y1413D02*
X1936Y1413D01*
X1966Y1413D02*
X1990Y1413D01*
X2019Y1413D02*
X2030Y1413D01*
X2041Y1413D02*
X2044Y1413D01*
X2071Y1413D02*
X2094Y1413D01*
X2125Y1413D02*
X2139Y1413D01*
X2171Y1413D02*
X2187Y1413D01*
X2221Y1413D02*
X2237Y1413D01*
X2276Y1413D02*
X2290Y1413D01*
X2314Y1413D02*
X2318Y1413D01*
X2342Y1413D02*
X2345Y1413D01*
X2437Y1413D02*
X2440Y1413D01*
X2518Y1413D02*
X2544Y1413D01*
X2614Y1413D02*
X2638Y1413D01*
X2664Y1413D02*
X2697Y1413D01*
X2715Y1413D02*
X2747Y1413D01*
X291Y1221D02*
X300Y1221D01*
X320Y1221D02*
X323Y1221D01*
X356Y1221D02*
X360Y1221D01*
X392Y1221D02*
X400Y1221D01*
X420Y1221D02*
X424Y1221D01*
X455Y1221D02*
X462Y1221D01*
X291Y1220D02*
X300Y1220D01*
X319Y1220D02*
X324Y1220D01*
X356Y1220D02*
X361Y1220D01*
X392Y1220D02*
X401Y1220D01*
X420Y1220D02*
X425Y1220D01*
X454Y1220D02*
X463Y1220D01*
X291Y1219D02*
X301Y1219D01*
X319Y1219D02*
X325Y1219D01*
X355Y1219D02*
X361Y1219D01*
X392Y1219D02*
X401Y1219D01*
X419Y1219D02*
X425Y1219D01*
X453Y1219D02*
X465Y1219D01*
X291Y1218D02*
X301Y1218D01*
X319Y1218D02*
X325Y1218D01*
X355Y1218D02*
X361Y1218D01*
X392Y1218D02*
X402Y1218D01*
X419Y1218D02*
X425Y1218D01*
X452Y1218D02*
X465Y1218D01*
X291Y1217D02*
X302Y1217D01*
X319Y1217D02*
X325Y1217D01*
X355Y1217D02*
X362Y1217D01*
X392Y1217D02*
X402Y1217D01*
X419Y1217D02*
X425Y1217D01*
X451Y1217D02*
X466Y1217D01*
X291Y1216D02*
X302Y1216D01*
X319Y1216D02*
X325Y1216D01*
X354Y1216D02*
X362Y1216D01*
X392Y1216D02*
X402Y1216D01*
X419Y1216D02*
X425Y1216D01*
X450Y1216D02*
X467Y1216D01*
X291Y1215D02*
X302Y1215D01*
X319Y1215D02*
X325Y1215D01*
X354Y1215D02*
X362Y1215D01*
X392Y1215D02*
X403Y1215D01*
X419Y1215D02*
X425Y1215D01*
X450Y1215D02*
X467Y1215D01*
X291Y1214D02*
X303Y1214D01*
X319Y1214D02*
X325Y1214D01*
X354Y1214D02*
X363Y1214D01*
X392Y1214D02*
X403Y1214D01*
X419Y1214D02*
X425Y1214D01*
X449Y1214D02*
X457Y1214D01*
X461Y1214D02*
X468Y1214D01*
X291Y1213D02*
X303Y1213D01*
X319Y1213D02*
X325Y1213D01*
X353Y1213D02*
X363Y1213D01*
X392Y1213D02*
X404Y1213D01*
X419Y1213D02*
X425Y1213D01*
X449Y1213D02*
X456Y1213D01*
X461Y1213D02*
X468Y1213D01*
X291Y1212D02*
X304Y1212D01*
X319Y1212D02*
X325Y1212D01*
X353Y1212D02*
X363Y1212D01*
X392Y1212D02*
X404Y1212D01*
X419Y1212D02*
X425Y1212D01*
X448Y1212D02*
X455Y1212D01*
X462Y1212D02*
X469Y1212D01*
X291Y1211D02*
X304Y1211D01*
X319Y1211D02*
X325Y1211D01*
X353Y1211D02*
X363Y1211D01*
X392Y1211D02*
X405Y1211D01*
X419Y1211D02*
X425Y1211D01*
X448Y1211D02*
X455Y1211D01*
X462Y1211D02*
X469Y1211D01*
X291Y1210D02*
X305Y1210D01*
X319Y1210D02*
X325Y1210D01*
X353Y1210D02*
X364Y1210D01*
X392Y1210D02*
X405Y1210D01*
X419Y1210D02*
X425Y1210D01*
X448Y1210D02*
X454Y1210D01*
X463Y1210D02*
X470Y1210D01*
X291Y1209D02*
X305Y1209D01*
X319Y1209D02*
X325Y1209D01*
X352Y1209D02*
X364Y1209D01*
X392Y1209D02*
X405Y1209D01*
X419Y1209D02*
X425Y1209D01*
X447Y1209D02*
X454Y1209D01*
X463Y1209D02*
X470Y1209D01*
X291Y1208D02*
X297Y1208D01*
X299Y1208D02*
X306Y1208D01*
X319Y1208D02*
X325Y1208D01*
X352Y1208D02*
X364Y1208D01*
X392Y1208D02*
X406Y1208D01*
X419Y1208D02*
X425Y1208D01*
X447Y1208D02*
X453Y1208D01*
X464Y1208D02*
X471Y1208D01*
X291Y1207D02*
X297Y1207D01*
X299Y1207D02*
X306Y1207D01*
X319Y1207D02*
X325Y1207D01*
X352Y1207D02*
X365Y1207D01*
X392Y1207D02*
X398Y1207D01*
X400Y1207D02*
X406Y1207D01*
X419Y1207D02*
X425Y1207D01*
X446Y1207D02*
X453Y1207D01*
X464Y1207D02*
X471Y1207D01*
X291Y1206D02*
X297Y1206D01*
X300Y1206D02*
X306Y1206D01*
X319Y1206D02*
X325Y1206D01*
X351Y1206D02*
X365Y1206D01*
X392Y1206D02*
X398Y1206D01*
X400Y1206D02*
X407Y1206D01*
X419Y1206D02*
X425Y1206D01*
X446Y1206D02*
X452Y1206D01*
X465Y1206D02*
X472Y1206D01*
X291Y1205D02*
X297Y1205D01*
X300Y1205D02*
X307Y1205D01*
X319Y1205D02*
X325Y1205D01*
X351Y1205D02*
X365Y1205D01*
X392Y1205D02*
X398Y1205D01*
X401Y1205D02*
X407Y1205D01*
X419Y1205D02*
X425Y1205D01*
X445Y1205D02*
X452Y1205D01*
X465Y1205D02*
X472Y1205D01*
X291Y1204D02*
X297Y1204D01*
X301Y1204D02*
X307Y1204D01*
X319Y1204D02*
X325Y1204D01*
X351Y1204D02*
X357Y1204D01*
X359Y1204D02*
X366Y1204D01*
X392Y1204D02*
X398Y1204D01*
X401Y1204D02*
X408Y1204D01*
X419Y1204D02*
X425Y1204D01*
X445Y1204D02*
X451Y1204D01*
X466Y1204D02*
X473Y1204D01*
X291Y1203D02*
X297Y1203D01*
X301Y1203D02*
X308Y1203D01*
X319Y1203D02*
X325Y1203D01*
X351Y1203D02*
X357Y1203D01*
X359Y1203D02*
X366Y1203D01*
X392Y1203D02*
X398Y1203D01*
X401Y1203D02*
X408Y1203D01*
X419Y1203D02*
X425Y1203D01*
X444Y1203D02*
X451Y1203D01*
X466Y1203D02*
X473Y1203D01*
X291Y1202D02*
X297Y1202D01*
X301Y1202D02*
X308Y1202D01*
X319Y1202D02*
X325Y1202D01*
X350Y1202D02*
X357Y1202D01*
X360Y1202D02*
X366Y1202D01*
X392Y1202D02*
X398Y1202D01*
X402Y1202D02*
X409Y1202D01*
X419Y1202D02*
X425Y1202D01*
X444Y1202D02*
X450Y1202D01*
X467Y1202D02*
X474Y1202D01*
X291Y1201D02*
X297Y1201D01*
X302Y1201D02*
X309Y1201D01*
X319Y1201D02*
X325Y1201D01*
X350Y1201D02*
X356Y1201D01*
X360Y1201D02*
X366Y1201D01*
X392Y1201D02*
X398Y1201D01*
X402Y1201D02*
X409Y1201D01*
X419Y1201D02*
X425Y1201D01*
X443Y1201D02*
X450Y1201D01*
X467Y1201D02*
X474Y1201D01*
X291Y1200D02*
X297Y1200D01*
X302Y1200D02*
X309Y1200D01*
X319Y1200D02*
X325Y1200D01*
X350Y1200D02*
X356Y1200D01*
X360Y1200D02*
X367Y1200D01*
X392Y1200D02*
X398Y1200D01*
X403Y1200D02*
X409Y1200D01*
X419Y1200D02*
X425Y1200D01*
X443Y1200D02*
X449Y1200D01*
X468Y1200D02*
X474Y1200D01*
X291Y1199D02*
X297Y1199D01*
X303Y1199D02*
X309Y1199D01*
X319Y1199D02*
X325Y1199D01*
X349Y1199D02*
X356Y1199D01*
X361Y1199D02*
X367Y1199D01*
X392Y1199D02*
X398Y1199D01*
X403Y1199D02*
X410Y1199D01*
X419Y1199D02*
X425Y1199D01*
X442Y1199D02*
X449Y1199D01*
X468Y1199D02*
X475Y1199D01*
X291Y1198D02*
X297Y1198D01*
X303Y1198D02*
X310Y1198D01*
X319Y1198D02*
X325Y1198D01*
X349Y1198D02*
X355Y1198D01*
X361Y1198D02*
X367Y1198D01*
X392Y1198D02*
X398Y1198D01*
X404Y1198D02*
X410Y1198D01*
X419Y1198D02*
X425Y1198D01*
X442Y1198D02*
X448Y1198D01*
X469Y1198D02*
X475Y1198D01*
X291Y1197D02*
X297Y1197D01*
X304Y1197D02*
X310Y1197D01*
X319Y1197D02*
X325Y1197D01*
X349Y1197D02*
X355Y1197D01*
X361Y1197D02*
X368Y1197D01*
X392Y1197D02*
X398Y1197D01*
X404Y1197D02*
X411Y1197D01*
X419Y1197D02*
X425Y1197D01*
X442Y1197D02*
X448Y1197D01*
X469Y1197D02*
X475Y1197D01*
X291Y1196D02*
X297Y1196D01*
X304Y1196D02*
X311Y1196D01*
X319Y1196D02*
X325Y1196D01*
X348Y1196D02*
X355Y1196D01*
X362Y1196D02*
X368Y1196D01*
X392Y1196D02*
X398Y1196D01*
X404Y1196D02*
X411Y1196D01*
X419Y1196D02*
X425Y1196D01*
X442Y1196D02*
X448Y1196D01*
X469Y1196D02*
X475Y1196D01*
X291Y1195D02*
X297Y1195D01*
X305Y1195D02*
X311Y1195D01*
X319Y1195D02*
X325Y1195D01*
X348Y1195D02*
X354Y1195D01*
X362Y1195D02*
X368Y1195D01*
X392Y1195D02*
X398Y1195D01*
X405Y1195D02*
X412Y1195D01*
X419Y1195D02*
X425Y1195D01*
X442Y1195D02*
X448Y1195D01*
X469Y1195D02*
X475Y1195D01*
X291Y1194D02*
X297Y1194D01*
X305Y1194D02*
X312Y1194D01*
X319Y1194D02*
X325Y1194D01*
X348Y1194D02*
X354Y1194D01*
X362Y1194D02*
X368Y1194D01*
X392Y1194D02*
X398Y1194D01*
X405Y1194D02*
X412Y1194D01*
X419Y1194D02*
X425Y1194D01*
X442Y1194D02*
X448Y1194D01*
X469Y1194D02*
X475Y1194D01*
X291Y1193D02*
X297Y1193D01*
X305Y1193D02*
X312Y1193D01*
X319Y1193D02*
X325Y1193D01*
X348Y1193D02*
X354Y1193D01*
X362Y1193D02*
X369Y1193D01*
X392Y1193D02*
X398Y1193D01*
X406Y1193D02*
X413Y1193D01*
X419Y1193D02*
X425Y1193D01*
X442Y1193D02*
X448Y1193D01*
X469Y1193D02*
X475Y1193D01*
X291Y1192D02*
X297Y1192D01*
X306Y1192D02*
X313Y1192D01*
X319Y1192D02*
X325Y1192D01*
X347Y1192D02*
X354Y1192D01*
X363Y1192D02*
X369Y1192D01*
X392Y1192D02*
X398Y1192D01*
X406Y1192D02*
X413Y1192D01*
X419Y1192D02*
X425Y1192D01*
X442Y1192D02*
X448Y1192D01*
X469Y1192D02*
X475Y1192D01*
X291Y1191D02*
X297Y1191D01*
X306Y1191D02*
X313Y1191D01*
X319Y1191D02*
X325Y1191D01*
X347Y1191D02*
X353Y1191D01*
X363Y1191D02*
X369Y1191D01*
X392Y1191D02*
X398Y1191D01*
X407Y1191D02*
X413Y1191D01*
X419Y1191D02*
X425Y1191D01*
X442Y1191D02*
X449Y1191D01*
X468Y1191D02*
X475Y1191D01*
X291Y1190D02*
X297Y1190D01*
X307Y1190D02*
X313Y1190D01*
X319Y1190D02*
X325Y1190D01*
X347Y1190D02*
X353Y1190D01*
X363Y1190D02*
X370Y1190D01*
X392Y1190D02*
X398Y1190D01*
X407Y1190D02*
X414Y1190D01*
X419Y1190D02*
X425Y1190D01*
X443Y1190D02*
X449Y1190D01*
X468Y1190D02*
X475Y1190D01*
X291Y1189D02*
X297Y1189D01*
X307Y1189D02*
X314Y1189D01*
X319Y1189D02*
X325Y1189D01*
X346Y1189D02*
X353Y1189D01*
X364Y1189D02*
X370Y1189D01*
X392Y1189D02*
X398Y1189D01*
X408Y1189D02*
X414Y1189D01*
X419Y1189D02*
X425Y1189D01*
X443Y1189D02*
X450Y1189D01*
X468Y1189D02*
X474Y1189D01*
X291Y1188D02*
X297Y1188D01*
X308Y1188D02*
X314Y1188D01*
X319Y1188D02*
X325Y1188D01*
X346Y1188D02*
X352Y1188D01*
X364Y1188D02*
X370Y1188D01*
X392Y1188D02*
X398Y1188D01*
X408Y1188D02*
X415Y1188D01*
X419Y1188D02*
X425Y1188D01*
X443Y1188D02*
X450Y1188D01*
X467Y1188D02*
X474Y1188D01*
X291Y1187D02*
X297Y1187D01*
X308Y1187D02*
X315Y1187D01*
X319Y1187D02*
X325Y1187D01*
X346Y1187D02*
X352Y1187D01*
X364Y1187D02*
X370Y1187D01*
X392Y1187D02*
X398Y1187D01*
X408Y1187D02*
X415Y1187D01*
X419Y1187D02*
X425Y1187D01*
X444Y1187D02*
X451Y1187D01*
X467Y1187D02*
X473Y1187D01*
X291Y1186D02*
X297Y1186D01*
X308Y1186D02*
X315Y1186D01*
X319Y1186D02*
X325Y1186D01*
X346Y1186D02*
X371Y1186D01*
X392Y1186D02*
X398Y1186D01*
X409Y1186D02*
X416Y1186D01*
X419Y1186D02*
X425Y1186D01*
X444Y1186D02*
X451Y1186D01*
X466Y1186D02*
X473Y1186D01*
X291Y1185D02*
X297Y1185D01*
X309Y1185D02*
X316Y1185D01*
X319Y1185D02*
X325Y1185D01*
X345Y1185D02*
X371Y1185D01*
X392Y1185D02*
X398Y1185D01*
X409Y1185D02*
X416Y1185D01*
X419Y1185D02*
X425Y1185D01*
X445Y1185D02*
X452Y1185D01*
X466Y1185D02*
X472Y1185D01*
X291Y1184D02*
X297Y1184D01*
X309Y1184D02*
X316Y1184D01*
X319Y1184D02*
X325Y1184D01*
X345Y1184D02*
X371Y1184D01*
X392Y1184D02*
X398Y1184D01*
X410Y1184D02*
X416Y1184D01*
X419Y1184D02*
X425Y1184D01*
X445Y1184D02*
X452Y1184D01*
X465Y1184D02*
X472Y1184D01*
X291Y1183D02*
X297Y1183D01*
X310Y1183D02*
X316Y1183D01*
X319Y1183D02*
X325Y1183D01*
X345Y1183D02*
X372Y1183D01*
X392Y1183D02*
X398Y1183D01*
X410Y1183D02*
X417Y1183D01*
X419Y1183D02*
X425Y1183D01*
X446Y1183D02*
X453Y1183D01*
X465Y1183D02*
X471Y1183D01*
X291Y1182D02*
X297Y1182D01*
X310Y1182D02*
X317Y1182D01*
X319Y1182D02*
X325Y1182D01*
X344Y1182D02*
X372Y1182D01*
X392Y1182D02*
X398Y1182D01*
X411Y1182D02*
X417Y1182D01*
X419Y1182D02*
X425Y1182D01*
X446Y1182D02*
X453Y1182D01*
X464Y1182D02*
X471Y1182D01*
X291Y1181D02*
X297Y1181D01*
X311Y1181D02*
X325Y1181D01*
X344Y1181D02*
X372Y1181D01*
X392Y1181D02*
X398Y1181D01*
X411Y1181D02*
X425Y1181D01*
X447Y1181D02*
X454Y1181D01*
X464Y1181D02*
X470Y1181D01*
X291Y1180D02*
X297Y1180D01*
X311Y1180D02*
X325Y1180D01*
X344Y1180D02*
X373Y1180D01*
X392Y1180D02*
X398Y1180D01*
X411Y1180D02*
X425Y1180D01*
X447Y1180D02*
X454Y1180D01*
X463Y1180D02*
X470Y1180D01*
X291Y1179D02*
X297Y1179D01*
X312Y1179D02*
X325Y1179D01*
X343Y1179D02*
X350Y1179D01*
X367Y1179D02*
X373Y1179D01*
X392Y1179D02*
X398Y1179D01*
X412Y1179D02*
X425Y1179D01*
X448Y1179D02*
X455Y1179D01*
X463Y1179D02*
X469Y1179D01*
X291Y1178D02*
X297Y1178D01*
X312Y1178D02*
X325Y1178D01*
X343Y1178D02*
X350Y1178D01*
X367Y1178D02*
X373Y1178D01*
X392Y1178D02*
X398Y1178D01*
X412Y1178D02*
X425Y1178D01*
X448Y1178D02*
X455Y1178D01*
X462Y1178D02*
X469Y1178D01*
X291Y1177D02*
X297Y1177D01*
X312Y1177D02*
X325Y1177D01*
X343Y1177D02*
X349Y1177D01*
X367Y1177D02*
X373Y1177D01*
X392Y1177D02*
X398Y1177D01*
X413Y1177D02*
X425Y1177D01*
X449Y1177D02*
X456Y1177D01*
X462Y1177D02*
X468Y1177D01*
X291Y1176D02*
X297Y1176D01*
X313Y1176D02*
X325Y1176D01*
X343Y1176D02*
X349Y1176D01*
X367Y1176D02*
X374Y1176D01*
X392Y1176D02*
X398Y1176D01*
X413Y1176D02*
X425Y1176D01*
X449Y1176D02*
X456Y1176D01*
X461Y1176D02*
X468Y1176D01*
X291Y1175D02*
X297Y1175D01*
X313Y1175D02*
X325Y1175D01*
X342Y1175D02*
X349Y1175D01*
X368Y1175D02*
X374Y1175D01*
X392Y1175D02*
X398Y1175D01*
X414Y1175D02*
X425Y1175D01*
X450Y1175D02*
X457Y1175D01*
X460Y1175D02*
X467Y1175D01*
X291Y1174D02*
X297Y1174D01*
X314Y1174D02*
X325Y1174D01*
X342Y1174D02*
X348Y1174D01*
X368Y1174D02*
X374Y1174D01*
X392Y1174D02*
X398Y1174D01*
X414Y1174D02*
X425Y1174D01*
X450Y1174D02*
X467Y1174D01*
X291Y1173D02*
X297Y1173D01*
X314Y1173D02*
X325Y1173D01*
X342Y1173D02*
X348Y1173D01*
X368Y1173D02*
X375Y1173D01*
X392Y1173D02*
X398Y1173D01*
X415Y1173D02*
X425Y1173D01*
X451Y1173D02*
X466Y1173D01*
X291Y1172D02*
X297Y1172D01*
X315Y1172D02*
X325Y1172D01*
X341Y1172D02*
X348Y1172D01*
X369Y1172D02*
X375Y1172D01*
X392Y1172D02*
X398Y1172D01*
X415Y1172D02*
X425Y1172D01*
X451Y1172D02*
X466Y1172D01*
X291Y1171D02*
X297Y1171D01*
X315Y1171D02*
X325Y1171D01*
X341Y1171D02*
X347Y1171D01*
X369Y1171D02*
X375Y1171D01*
X392Y1171D02*
X398Y1171D01*
X415Y1171D02*
X425Y1171D01*
X452Y1171D02*
X465Y1171D01*
X291Y1170D02*
X297Y1170D01*
X315Y1170D02*
X325Y1170D01*
X341Y1170D02*
X347Y1170D01*
X369Y1170D02*
X375Y1170D01*
X392Y1170D02*
X397Y1170D01*
X416Y1170D02*
X425Y1170D01*
X453Y1170D02*
X464Y1170D01*
X292Y1169D02*
X296Y1169D01*
X316Y1169D02*
X325Y1169D01*
X342Y1169D02*
X347Y1169D01*
X370Y1169D02*
X374Y1169D01*
X392Y1169D02*
X397Y1169D01*
X416Y1169D02*
X425Y1169D01*
X454Y1169D02*
X463Y1169D01*
X293Y1168D02*
X295Y1168D01*
X316Y1168D02*
X325Y1168D01*
X343Y1168D02*
X345Y1168D01*
X371Y1168D02*
X373Y1168D01*
X394Y1168D02*
X395Y1168D01*
X417Y1168D02*
X425Y1168D01*
X457Y1168D02*
X460Y1168D01*
X2718Y963D02*
X2718Y963D01*
X2754Y963D02*
X2754Y963D01*
X2782Y963D02*
X2782Y963D01*
X2802Y963D02*
X2835Y963D01*
X2714Y962D02*
X2722Y962D01*
X2752Y962D02*
X2756Y962D01*
X2780Y962D02*
X2784Y962D01*
X2802Y962D02*
X2835Y962D01*
X2713Y961D02*
X2723Y961D01*
X2752Y961D02*
X2757Y961D01*
X2779Y961D02*
X2785Y961D01*
X2802Y961D02*
X2835Y961D01*
X2712Y960D02*
X2724Y960D01*
X2751Y960D02*
X2757Y960D01*
X2779Y960D02*
X2785Y960D01*
X2802Y960D02*
X2835Y960D01*
X2711Y959D02*
X2725Y959D01*
X2751Y959D02*
X2757Y959D01*
X2779Y959D02*
X2785Y959D01*
X2802Y959D02*
X2835Y959D01*
X2710Y958D02*
X2726Y958D01*
X2751Y958D02*
X2757Y958D01*
X2779Y958D02*
X2785Y958D01*
X2802Y958D02*
X2835Y958D01*
X2710Y957D02*
X2726Y957D01*
X2751Y957D02*
X2757Y957D01*
X2779Y957D02*
X2785Y957D01*
X2802Y957D02*
X2835Y957D01*
X2709Y956D02*
X2717Y956D01*
X2719Y956D02*
X2727Y956D01*
X2751Y956D02*
X2757Y956D01*
X2779Y956D02*
X2785Y956D01*
X2802Y956D02*
X2808Y956D01*
X2815Y956D02*
X2822Y956D01*
X2829Y956D02*
X2835Y956D01*
X2709Y955D02*
X2716Y955D01*
X2720Y955D02*
X2727Y955D01*
X2751Y955D02*
X2757Y955D01*
X2779Y955D02*
X2785Y955D01*
X2802Y955D02*
X2808Y955D01*
X2815Y955D02*
X2821Y955D01*
X2829Y955D02*
X2835Y955D01*
X2708Y954D02*
X2715Y954D01*
X2721Y954D02*
X2728Y954D01*
X2751Y954D02*
X2757Y954D01*
X2779Y954D02*
X2785Y954D01*
X2802Y954D02*
X2808Y954D01*
X2815Y954D02*
X2821Y954D01*
X2829Y954D02*
X2835Y954D01*
X2708Y953D02*
X2715Y953D01*
X2721Y953D02*
X2728Y953D01*
X2751Y953D02*
X2757Y953D01*
X2779Y953D02*
X2785Y953D01*
X2802Y953D02*
X2807Y953D01*
X2815Y953D02*
X2821Y953D01*
X2829Y953D02*
X2835Y953D01*
X2707Y952D02*
X2714Y952D01*
X2722Y952D02*
X2729Y952D01*
X2751Y952D02*
X2757Y952D01*
X2779Y952D02*
X2785Y952D01*
X2802Y952D02*
X2807Y952D01*
X2815Y952D02*
X2821Y952D01*
X2830Y952D02*
X2835Y952D01*
X2707Y951D02*
X2714Y951D01*
X2722Y951D02*
X2729Y951D01*
X2751Y951D02*
X2757Y951D01*
X2779Y951D02*
X2785Y951D01*
X2803Y951D02*
X2806Y951D01*
X2815Y951D02*
X2821Y951D01*
X2830Y951D02*
X2834Y951D01*
X2706Y950D02*
X2713Y950D01*
X2723Y950D02*
X2730Y950D01*
X2751Y950D02*
X2757Y950D01*
X2779Y950D02*
X2785Y950D01*
X2815Y950D02*
X2821Y950D01*
X2706Y949D02*
X2713Y949D01*
X2723Y949D02*
X2730Y949D01*
X2751Y949D02*
X2757Y949D01*
X2779Y949D02*
X2785Y949D01*
X2815Y949D02*
X2821Y949D01*
X2705Y948D02*
X2712Y948D01*
X2724Y948D02*
X2731Y948D01*
X2751Y948D02*
X2757Y948D01*
X2779Y948D02*
X2785Y948D01*
X2815Y948D02*
X2821Y948D01*
X2705Y947D02*
X2712Y947D01*
X2724Y947D02*
X2731Y947D01*
X2751Y947D02*
X2757Y947D01*
X2779Y947D02*
X2785Y947D01*
X2815Y947D02*
X2821Y947D01*
X2704Y946D02*
X2711Y946D01*
X2725Y946D02*
X2732Y946D01*
X2751Y946D02*
X2757Y946D01*
X2779Y946D02*
X2785Y946D01*
X2815Y946D02*
X2821Y946D01*
X2704Y945D02*
X2711Y945D01*
X2725Y945D02*
X2732Y945D01*
X2751Y945D02*
X2757Y945D01*
X2779Y945D02*
X2785Y945D01*
X2815Y945D02*
X2821Y945D01*
X2703Y944D02*
X2710Y944D01*
X2726Y944D02*
X2733Y944D01*
X2751Y944D02*
X2757Y944D01*
X2779Y944D02*
X2785Y944D01*
X2815Y944D02*
X2821Y944D01*
X2703Y943D02*
X2710Y943D01*
X2726Y943D02*
X2733Y943D01*
X2751Y943D02*
X2757Y943D01*
X2779Y943D02*
X2785Y943D01*
X2815Y943D02*
X2821Y943D01*
X2702Y942D02*
X2709Y942D01*
X2727Y942D02*
X2733Y942D01*
X2751Y942D02*
X2757Y942D01*
X2779Y942D02*
X2785Y942D01*
X2815Y942D02*
X2821Y942D01*
X2702Y941D02*
X2709Y941D01*
X2727Y941D02*
X2734Y941D01*
X2751Y941D02*
X2757Y941D01*
X2779Y941D02*
X2785Y941D01*
X2815Y941D02*
X2821Y941D01*
X2702Y940D02*
X2708Y940D01*
X2728Y940D02*
X2734Y940D01*
X2751Y940D02*
X2757Y940D01*
X2779Y940D02*
X2785Y940D01*
X2815Y940D02*
X2821Y940D01*
X2701Y939D02*
X2708Y939D01*
X2728Y939D02*
X2734Y939D01*
X2751Y939D02*
X2757Y939D01*
X2779Y939D02*
X2785Y939D01*
X2815Y939D02*
X2821Y939D01*
X2701Y938D02*
X2707Y938D01*
X2728Y938D02*
X2735Y938D01*
X2751Y938D02*
X2757Y938D01*
X2779Y938D02*
X2785Y938D01*
X2815Y938D02*
X2821Y938D01*
X2701Y937D02*
X2707Y937D01*
X2729Y937D02*
X2735Y937D01*
X2751Y937D02*
X2757Y937D01*
X2779Y937D02*
X2785Y937D01*
X2815Y937D02*
X2821Y937D01*
X2701Y936D02*
X2707Y936D01*
X2729Y936D02*
X2735Y936D01*
X2751Y936D02*
X2757Y936D01*
X2779Y936D02*
X2785Y936D01*
X2815Y936D02*
X2821Y936D01*
X2701Y935D02*
X2707Y935D01*
X2729Y935D02*
X2735Y935D01*
X2751Y935D02*
X2757Y935D01*
X2779Y935D02*
X2785Y935D01*
X2815Y935D02*
X2821Y935D01*
X2701Y934D02*
X2707Y934D01*
X2728Y934D02*
X2735Y934D01*
X2751Y934D02*
X2757Y934D01*
X2779Y934D02*
X2785Y934D01*
X2815Y934D02*
X2821Y934D01*
X2701Y933D02*
X2708Y933D01*
X2728Y933D02*
X2734Y933D01*
X2751Y933D02*
X2757Y933D01*
X2779Y933D02*
X2785Y933D01*
X2815Y933D02*
X2821Y933D01*
X2702Y932D02*
X2708Y932D01*
X2728Y932D02*
X2734Y932D01*
X2751Y932D02*
X2757Y932D01*
X2779Y932D02*
X2785Y932D01*
X2815Y932D02*
X2821Y932D01*
X2702Y931D02*
X2709Y931D01*
X2727Y931D02*
X2734Y931D01*
X2751Y931D02*
X2757Y931D01*
X2779Y931D02*
X2785Y931D01*
X2815Y931D02*
X2821Y931D01*
X2702Y930D02*
X2709Y930D01*
X2727Y930D02*
X2733Y930D01*
X2751Y930D02*
X2757Y930D01*
X2779Y930D02*
X2785Y930D01*
X2815Y930D02*
X2821Y930D01*
X2703Y929D02*
X2710Y929D01*
X2726Y929D02*
X2733Y929D01*
X2751Y929D02*
X2757Y929D01*
X2779Y929D02*
X2785Y929D01*
X2815Y929D02*
X2821Y929D01*
X2703Y928D02*
X2710Y928D01*
X2726Y928D02*
X2733Y928D01*
X2751Y928D02*
X2757Y928D01*
X2779Y928D02*
X2785Y928D01*
X2815Y928D02*
X2821Y928D01*
X2704Y927D02*
X2711Y927D01*
X2725Y927D02*
X2732Y927D01*
X2751Y927D02*
X2757Y927D01*
X2779Y927D02*
X2785Y927D01*
X2815Y927D02*
X2821Y927D01*
X2704Y926D02*
X2711Y926D01*
X2725Y926D02*
X2732Y926D01*
X2751Y926D02*
X2757Y926D01*
X2779Y926D02*
X2785Y926D01*
X2815Y926D02*
X2821Y926D01*
X2705Y925D02*
X2712Y925D01*
X2724Y925D02*
X2731Y925D01*
X2751Y925D02*
X2757Y925D01*
X2779Y925D02*
X2785Y925D01*
X2815Y925D02*
X2821Y925D01*
X2705Y924D02*
X2712Y924D01*
X2724Y924D02*
X2731Y924D01*
X2751Y924D02*
X2757Y924D01*
X2779Y924D02*
X2785Y924D01*
X2815Y924D02*
X2821Y924D01*
X2706Y923D02*
X2713Y923D01*
X2723Y923D02*
X2730Y923D01*
X2751Y923D02*
X2757Y923D01*
X2779Y923D02*
X2785Y923D01*
X2815Y923D02*
X2821Y923D01*
X2706Y922D02*
X2713Y922D01*
X2723Y922D02*
X2730Y922D01*
X2751Y922D02*
X2757Y922D01*
X2779Y922D02*
X2785Y922D01*
X2815Y922D02*
X2821Y922D01*
X2707Y921D02*
X2714Y921D01*
X2722Y921D02*
X2729Y921D01*
X2751Y921D02*
X2757Y921D01*
X2779Y921D02*
X2785Y921D01*
X2815Y921D02*
X2821Y921D01*
X2707Y920D02*
X2714Y920D01*
X2722Y920D02*
X2729Y920D01*
X2751Y920D02*
X2757Y920D01*
X2779Y920D02*
X2785Y920D01*
X2815Y920D02*
X2821Y920D01*
X2708Y919D02*
X2715Y919D01*
X2721Y919D02*
X2728Y919D01*
X2751Y919D02*
X2757Y919D01*
X2779Y919D02*
X2785Y919D01*
X2815Y919D02*
X2821Y919D01*
X2708Y918D02*
X2715Y918D01*
X2721Y918D02*
X2728Y918D01*
X2751Y918D02*
X2758Y918D01*
X2779Y918D02*
X2785Y918D01*
X2815Y918D02*
X2821Y918D01*
X2709Y917D02*
X2716Y917D01*
X2720Y917D02*
X2727Y917D01*
X2752Y917D02*
X2758Y917D01*
X2778Y917D02*
X2785Y917D01*
X2815Y917D02*
X2821Y917D01*
X2709Y916D02*
X2727Y916D01*
X2752Y916D02*
X2761Y916D01*
X2776Y916D02*
X2784Y916D01*
X2815Y916D02*
X2821Y916D01*
X2710Y915D02*
X2726Y915D01*
X2752Y915D02*
X2784Y915D01*
X2815Y915D02*
X2821Y915D01*
X2710Y914D02*
X2726Y914D01*
X2753Y914D02*
X2783Y914D01*
X2815Y914D02*
X2821Y914D01*
X2711Y913D02*
X2725Y913D01*
X2754Y913D02*
X2783Y913D01*
X2815Y913D02*
X2821Y913D01*
X2712Y912D02*
X2724Y912D01*
X2755Y912D02*
X2782Y912D01*
X2815Y912D02*
X2821Y912D01*
X2713Y911D02*
X2723Y911D01*
X2756Y911D02*
X2781Y911D01*
X2816Y911D02*
X2821Y911D01*
X2714Y910D02*
X2722Y910D01*
X2757Y910D02*
X2779Y910D01*
X2816Y910D02*
X2820Y910D01*
X2718Y909D02*
X2718Y909D01*
X2761Y909D02*
X2775Y909D01*
X2818Y909D02*
X2818Y909D01*
X1275Y360D02*
X1302Y360D01*
X1325Y360D02*
X1357Y360D01*
X1376Y360D02*
X1380Y360D01*
X1440Y360D02*
X1444Y360D01*
X1477Y360D02*
X1480Y360D01*
X1504Y360D02*
X1508Y360D01*
X1275Y359D02*
X1303Y359D01*
X1325Y359D02*
X1358Y359D01*
X1375Y359D02*
X1380Y359D01*
X1439Y359D02*
X1444Y359D01*
X1476Y359D02*
X1481Y359D01*
X1503Y359D02*
X1508Y359D01*
X1275Y358D02*
X1305Y358D01*
X1325Y358D02*
X1358Y358D01*
X1375Y358D02*
X1381Y358D01*
X1439Y358D02*
X1445Y358D01*
X1475Y358D02*
X1481Y358D01*
X1503Y358D02*
X1509Y358D01*
X1275Y357D02*
X1306Y357D01*
X1325Y357D02*
X1358Y357D01*
X1375Y357D02*
X1381Y357D01*
X1439Y357D02*
X1445Y357D01*
X1475Y357D02*
X1481Y357D01*
X1503Y357D02*
X1509Y357D01*
X1275Y356D02*
X1306Y356D01*
X1325Y356D02*
X1358Y356D01*
X1375Y356D02*
X1381Y356D01*
X1438Y356D02*
X1445Y356D01*
X1475Y356D02*
X1481Y356D01*
X1503Y356D02*
X1509Y356D01*
X1275Y355D02*
X1307Y355D01*
X1325Y355D02*
X1357Y355D01*
X1375Y355D02*
X1381Y355D01*
X1438Y355D02*
X1446Y355D01*
X1475Y355D02*
X1481Y355D01*
X1503Y355D02*
X1509Y355D01*
X1275Y354D02*
X1307Y354D01*
X1325Y354D02*
X1356Y354D01*
X1375Y354D02*
X1381Y354D01*
X1438Y354D02*
X1446Y354D01*
X1475Y354D02*
X1481Y354D01*
X1503Y354D02*
X1509Y354D01*
X1275Y353D02*
X1281Y353D01*
X1301Y353D02*
X1308Y353D01*
X1325Y353D02*
X1331Y353D01*
X1375Y353D02*
X1381Y353D01*
X1437Y353D02*
X1446Y353D01*
X1475Y353D02*
X1481Y353D01*
X1503Y353D02*
X1509Y353D01*
X1275Y352D02*
X1281Y352D01*
X1302Y352D02*
X1308Y352D01*
X1325Y352D02*
X1331Y352D01*
X1375Y352D02*
X1381Y352D01*
X1437Y352D02*
X1447Y352D01*
X1475Y352D02*
X1482Y352D01*
X1502Y352D02*
X1509Y352D01*
X1275Y351D02*
X1281Y351D01*
X1302Y351D02*
X1308Y351D01*
X1325Y351D02*
X1331Y351D01*
X1375Y351D02*
X1381Y351D01*
X1437Y351D02*
X1447Y351D01*
X1475Y351D02*
X1483Y351D01*
X1502Y351D02*
X1509Y351D01*
X1275Y350D02*
X1281Y350D01*
X1302Y350D02*
X1308Y350D01*
X1325Y350D02*
X1331Y350D01*
X1375Y350D02*
X1381Y350D01*
X1437Y350D02*
X1447Y350D01*
X1476Y350D02*
X1483Y350D01*
X1501Y350D02*
X1509Y350D01*
X1275Y349D02*
X1281Y349D01*
X1302Y349D02*
X1308Y349D01*
X1325Y349D02*
X1331Y349D01*
X1375Y349D02*
X1381Y349D01*
X1436Y349D02*
X1447Y349D01*
X1476Y349D02*
X1484Y349D01*
X1500Y349D02*
X1508Y349D01*
X1275Y348D02*
X1281Y348D01*
X1302Y348D02*
X1308Y348D01*
X1325Y348D02*
X1331Y348D01*
X1375Y348D02*
X1381Y348D01*
X1436Y348D02*
X1448Y348D01*
X1477Y348D02*
X1485Y348D01*
X1499Y348D02*
X1507Y348D01*
X1275Y347D02*
X1281Y347D01*
X1302Y347D02*
X1308Y347D01*
X1325Y347D02*
X1331Y347D01*
X1375Y347D02*
X1381Y347D01*
X1436Y347D02*
X1448Y347D01*
X1478Y347D02*
X1486Y347D01*
X1498Y347D02*
X1506Y347D01*
X1275Y346D02*
X1281Y346D01*
X1302Y346D02*
X1308Y346D01*
X1325Y346D02*
X1331Y346D01*
X1375Y346D02*
X1381Y346D01*
X1435Y346D02*
X1448Y346D01*
X1479Y346D02*
X1487Y346D01*
X1498Y346D02*
X1506Y346D01*
X1275Y345D02*
X1281Y345D01*
X1302Y345D02*
X1308Y345D01*
X1325Y345D02*
X1331Y345D01*
X1375Y345D02*
X1381Y345D01*
X1435Y345D02*
X1449Y345D01*
X1479Y345D02*
X1487Y345D01*
X1497Y345D02*
X1505Y345D01*
X1275Y344D02*
X1281Y344D01*
X1301Y344D02*
X1308Y344D01*
X1325Y344D02*
X1331Y344D01*
X1375Y344D02*
X1381Y344D01*
X1435Y344D02*
X1449Y344D01*
X1480Y344D02*
X1488Y344D01*
X1496Y344D02*
X1504Y344D01*
X1275Y343D02*
X1307Y343D01*
X1325Y343D02*
X1331Y343D01*
X1375Y343D02*
X1381Y343D01*
X1435Y343D02*
X1441Y343D01*
X1443Y343D02*
X1449Y343D01*
X1481Y343D02*
X1489Y343D01*
X1495Y343D02*
X1503Y343D01*
X1275Y342D02*
X1307Y342D01*
X1325Y342D02*
X1331Y342D01*
X1375Y342D02*
X1381Y342D01*
X1434Y342D02*
X1441Y342D01*
X1443Y342D02*
X1450Y342D01*
X1482Y342D02*
X1490Y342D01*
X1495Y342D02*
X1502Y342D01*
X1275Y341D02*
X1306Y341D01*
X1325Y341D02*
X1331Y341D01*
X1375Y341D02*
X1381Y341D01*
X1434Y341D02*
X1440Y341D01*
X1443Y341D02*
X1450Y341D01*
X1483Y341D02*
X1490Y341D01*
X1494Y341D02*
X1502Y341D01*
X1275Y340D02*
X1306Y340D01*
X1325Y340D02*
X1331Y340D01*
X1375Y340D02*
X1381Y340D01*
X1434Y340D02*
X1440Y340D01*
X1444Y340D02*
X1450Y340D01*
X1483Y340D02*
X1491Y340D01*
X1493Y340D02*
X1501Y340D01*
X1275Y339D02*
X1305Y339D01*
X1325Y339D02*
X1331Y339D01*
X1375Y339D02*
X1381Y339D01*
X1433Y339D02*
X1440Y339D01*
X1444Y339D02*
X1450Y339D01*
X1484Y339D02*
X1500Y339D01*
X1275Y338D02*
X1303Y338D01*
X1325Y338D02*
X1331Y338D01*
X1375Y338D02*
X1381Y338D01*
X1433Y338D02*
X1439Y338D01*
X1444Y338D02*
X1451Y338D01*
X1485Y338D02*
X1499Y338D01*
X1275Y337D02*
X1302Y337D01*
X1325Y337D02*
X1342Y337D01*
X1375Y337D02*
X1381Y337D01*
X1433Y337D02*
X1439Y337D01*
X1445Y337D02*
X1451Y337D01*
X1486Y337D02*
X1499Y337D01*
X1275Y336D02*
X1281Y336D01*
X1286Y336D02*
X1294Y336D01*
X1325Y336D02*
X1344Y336D01*
X1375Y336D02*
X1381Y336D01*
X1432Y336D02*
X1439Y336D01*
X1445Y336D02*
X1451Y336D01*
X1486Y336D02*
X1498Y336D01*
X1275Y335D02*
X1281Y335D01*
X1287Y335D02*
X1294Y335D01*
X1325Y335D02*
X1344Y335D01*
X1375Y335D02*
X1381Y335D01*
X1432Y335D02*
X1439Y335D01*
X1445Y335D02*
X1452Y335D01*
X1487Y335D02*
X1497Y335D01*
X1275Y334D02*
X1281Y334D01*
X1288Y334D02*
X1295Y334D01*
X1325Y334D02*
X1344Y334D01*
X1375Y334D02*
X1381Y334D01*
X1432Y334D02*
X1438Y334D01*
X1446Y334D02*
X1452Y334D01*
X1488Y334D02*
X1496Y334D01*
X1275Y333D02*
X1281Y333D01*
X1288Y333D02*
X1295Y333D01*
X1325Y333D02*
X1344Y333D01*
X1375Y333D02*
X1381Y333D01*
X1432Y333D02*
X1438Y333D01*
X1446Y333D02*
X1452Y333D01*
X1489Y333D02*
X1495Y333D01*
X1275Y332D02*
X1281Y332D01*
X1289Y332D02*
X1296Y332D01*
X1325Y332D02*
X1344Y332D01*
X1375Y332D02*
X1381Y332D01*
X1431Y332D02*
X1438Y332D01*
X1446Y332D02*
X1452Y332D01*
X1489Y332D02*
X1495Y332D01*
X1275Y331D02*
X1281Y331D01*
X1289Y331D02*
X1297Y331D01*
X1325Y331D02*
X1343Y331D01*
X1375Y331D02*
X1381Y331D01*
X1431Y331D02*
X1437Y331D01*
X1446Y331D02*
X1453Y331D01*
X1489Y331D02*
X1495Y331D01*
X1275Y330D02*
X1281Y330D01*
X1290Y330D02*
X1297Y330D01*
X1325Y330D02*
X1331Y330D01*
X1375Y330D02*
X1381Y330D01*
X1431Y330D02*
X1437Y330D01*
X1447Y330D02*
X1453Y330D01*
X1489Y330D02*
X1495Y330D01*
X1275Y329D02*
X1281Y329D01*
X1290Y329D02*
X1298Y329D01*
X1325Y329D02*
X1331Y329D01*
X1375Y329D02*
X1381Y329D01*
X1430Y329D02*
X1437Y329D01*
X1447Y329D02*
X1453Y329D01*
X1489Y329D02*
X1495Y329D01*
X1275Y328D02*
X1281Y328D01*
X1291Y328D02*
X1298Y328D01*
X1325Y328D02*
X1331Y328D01*
X1375Y328D02*
X1381Y328D01*
X1430Y328D02*
X1436Y328D01*
X1447Y328D02*
X1454Y328D01*
X1489Y328D02*
X1495Y328D01*
X1275Y327D02*
X1281Y327D01*
X1292Y327D02*
X1299Y327D01*
X1325Y327D02*
X1331Y327D01*
X1375Y327D02*
X1381Y327D01*
X1430Y327D02*
X1436Y327D01*
X1448Y327D02*
X1454Y327D01*
X1489Y327D02*
X1495Y327D01*
X1275Y326D02*
X1281Y326D01*
X1292Y326D02*
X1299Y326D01*
X1325Y326D02*
X1331Y326D01*
X1375Y326D02*
X1381Y326D01*
X1430Y326D02*
X1436Y326D01*
X1448Y326D02*
X1454Y326D01*
X1489Y326D02*
X1495Y326D01*
X1275Y325D02*
X1281Y325D01*
X1293Y325D02*
X1300Y325D01*
X1325Y325D02*
X1331Y325D01*
X1375Y325D02*
X1381Y325D01*
X1429Y325D02*
X1454Y325D01*
X1489Y325D02*
X1495Y325D01*
X1275Y324D02*
X1281Y324D01*
X1293Y324D02*
X1301Y324D01*
X1325Y324D02*
X1331Y324D01*
X1375Y324D02*
X1381Y324D01*
X1429Y324D02*
X1455Y324D01*
X1489Y324D02*
X1495Y324D01*
X1275Y323D02*
X1281Y323D01*
X1294Y323D02*
X1301Y323D01*
X1325Y323D02*
X1331Y323D01*
X1375Y323D02*
X1381Y323D01*
X1429Y323D02*
X1455Y323D01*
X1489Y323D02*
X1495Y323D01*
X1275Y322D02*
X1281Y322D01*
X1295Y322D02*
X1302Y322D01*
X1325Y322D02*
X1331Y322D01*
X1375Y322D02*
X1381Y322D01*
X1428Y322D02*
X1455Y322D01*
X1489Y322D02*
X1495Y322D01*
X1275Y321D02*
X1281Y321D01*
X1295Y321D02*
X1302Y321D01*
X1325Y321D02*
X1331Y321D01*
X1375Y321D02*
X1381Y321D01*
X1428Y321D02*
X1456Y321D01*
X1489Y321D02*
X1495Y321D01*
X1275Y320D02*
X1281Y320D01*
X1296Y320D02*
X1303Y320D01*
X1325Y320D02*
X1331Y320D01*
X1375Y320D02*
X1381Y320D01*
X1428Y320D02*
X1456Y320D01*
X1489Y320D02*
X1495Y320D01*
X1275Y319D02*
X1281Y319D01*
X1296Y319D02*
X1304Y319D01*
X1325Y319D02*
X1331Y319D01*
X1375Y319D02*
X1381Y319D01*
X1427Y319D02*
X1456Y319D01*
X1489Y319D02*
X1495Y319D01*
X1275Y318D02*
X1281Y318D01*
X1297Y318D02*
X1304Y318D01*
X1325Y318D02*
X1331Y318D01*
X1375Y318D02*
X1381Y318D01*
X1427Y318D02*
X1434Y318D01*
X1450Y318D02*
X1457Y318D01*
X1489Y318D02*
X1495Y318D01*
X1275Y317D02*
X1281Y317D01*
X1297Y317D02*
X1305Y317D01*
X1325Y317D02*
X1331Y317D01*
X1375Y317D02*
X1381Y317D01*
X1427Y317D02*
X1433Y317D01*
X1451Y317D02*
X1457Y317D01*
X1489Y317D02*
X1495Y317D01*
X1275Y316D02*
X1281Y316D01*
X1298Y316D02*
X1305Y316D01*
X1325Y316D02*
X1331Y316D01*
X1375Y316D02*
X1381Y316D01*
X1427Y316D02*
X1433Y316D01*
X1451Y316D02*
X1457Y316D01*
X1489Y316D02*
X1495Y316D01*
X1275Y315D02*
X1281Y315D01*
X1299Y315D02*
X1306Y315D01*
X1325Y315D02*
X1331Y315D01*
X1375Y315D02*
X1381Y315D01*
X1426Y315D02*
X1433Y315D01*
X1451Y315D02*
X1457Y315D01*
X1489Y315D02*
X1495Y315D01*
X1275Y314D02*
X1281Y314D01*
X1299Y314D02*
X1306Y314D01*
X1325Y314D02*
X1331Y314D01*
X1375Y314D02*
X1381Y314D01*
X1426Y314D02*
X1432Y314D01*
X1451Y314D02*
X1458Y314D01*
X1489Y314D02*
X1495Y314D01*
X1275Y313D02*
X1281Y313D01*
X1300Y313D02*
X1307Y313D01*
X1325Y313D02*
X1357Y313D01*
X1375Y313D02*
X1407Y313D01*
X1426Y313D02*
X1432Y313D01*
X1452Y313D02*
X1458Y313D01*
X1489Y313D02*
X1495Y313D01*
X1275Y312D02*
X1281Y312D01*
X1300Y312D02*
X1308Y312D01*
X1325Y312D02*
X1358Y312D01*
X1375Y312D02*
X1408Y312D01*
X1425Y312D02*
X1432Y312D01*
X1452Y312D02*
X1458Y312D01*
X1489Y312D02*
X1495Y312D01*
X1275Y311D02*
X1281Y311D01*
X1301Y311D02*
X1308Y311D01*
X1325Y311D02*
X1358Y311D01*
X1375Y311D02*
X1408Y311D01*
X1425Y311D02*
X1431Y311D01*
X1452Y311D02*
X1459Y311D01*
X1489Y311D02*
X1495Y311D01*
X1275Y310D02*
X1281Y310D01*
X1302Y310D02*
X1308Y310D01*
X1325Y310D02*
X1358Y310D01*
X1375Y310D02*
X1408Y310D01*
X1425Y310D02*
X1431Y310D01*
X1453Y310D02*
X1459Y310D01*
X1489Y310D02*
X1495Y310D01*
X1275Y309D02*
X1280Y309D01*
X1302Y309D02*
X1308Y309D01*
X1325Y309D02*
X1358Y309D01*
X1375Y309D02*
X1408Y309D01*
X1425Y309D02*
X1431Y309D01*
X1453Y309D02*
X1459Y309D01*
X1489Y309D02*
X1495Y309D01*
X1275Y308D02*
X1280Y308D01*
X1303Y308D02*
X1307Y308D01*
X1325Y308D02*
X1357Y308D01*
X1375Y308D02*
X1408Y308D01*
X1426Y308D02*
X1430Y308D01*
X1454Y308D02*
X1458Y308D01*
X1490Y308D02*
X1494Y308D01*
X1277Y307D02*
X1278Y307D01*
X1304Y307D02*
X1306Y307D01*
X1325Y307D02*
X1356Y307D01*
X1375Y307D02*
X1406Y307D01*
X1427Y307D02*
X1429Y307D01*
X1455Y307D02*
X1457Y307D01*
X1491Y307D02*
X1493Y307D01*
D02*
G04 End of Silk1*
M02*