G04 MADE WITH FRITZING*
G04 WWW.FRITZING.ORG*
G04 DOUBLE SIDED*
G04 HOLES PLATED*
G04 CONTOUR ON CENTER OF CONTOUR VECTOR*
%ASAXBY*%
%FSLAX23Y23*%
%MOIN*%
%OFA0B0*%
%SFA1.0B1.0*%
%ADD10C,0.070000*%
%ADD11C,0.074000*%
%ADD12C,0.071181*%
%ADD13C,0.080000*%
%ADD14R,0.069972X0.070000*%
%ADD15R,0.080000X0.080000*%
%ADD16C,0.024000*%
%LNCOPPER0*%
G90*
G70*
G54D10*
X111Y1678D03*
X111Y1578D03*
X111Y1478D03*
X111Y1378D03*
X111Y1278D03*
X111Y1178D03*
X111Y1078D03*
X111Y978D03*
X111Y878D03*
X111Y778D03*
X111Y678D03*
X111Y578D03*
X111Y478D03*
X111Y378D03*
X111Y278D03*
X711Y1678D03*
X711Y1578D03*
X711Y1478D03*
X711Y1378D03*
X711Y1278D03*
X711Y1178D03*
X711Y1078D03*
X711Y978D03*
X711Y878D03*
X711Y778D03*
X711Y678D03*
X711Y578D03*
X711Y478D03*
X711Y378D03*
X711Y278D03*
G54D11*
X2711Y2078D03*
X2711Y1978D03*
X2711Y1878D03*
X2711Y1778D03*
X2711Y1678D03*
X2711Y1578D03*
G54D12*
X2211Y478D03*
X1611Y478D03*
X1611Y178D03*
X2311Y178D03*
X2011Y178D03*
G54D13*
X2954Y1021D03*
X2954Y821D03*
X2954Y621D03*
X2954Y1221D03*
G54D14*
X111Y1678D03*
G54D15*
X2954Y1221D03*
G54D16*
X2912Y1881D02*
X2742Y1878D01*
D02*
X3009Y1777D02*
X2912Y1881D01*
D02*
X3009Y1278D02*
X3009Y1777D01*
D02*
X2976Y1243D02*
X3009Y1278D01*
D02*
X3009Y1978D02*
X2742Y1978D01*
D02*
X3113Y1881D02*
X3009Y1978D01*
D02*
X3113Y1181D02*
X3113Y1881D01*
D02*
X2976Y1043D02*
X3113Y1181D01*
D02*
X807Y2077D02*
X2614Y2077D01*
D02*
X2614Y2077D02*
X2689Y2000D01*
D02*
X712Y1981D02*
X807Y2077D01*
D02*
X711Y1707D02*
X712Y1981D01*
D02*
X1511Y1478D02*
X1511Y574D01*
D02*
X1511Y574D02*
X1585Y503D01*
D02*
X1415Y1582D02*
X1511Y1478D01*
D02*
X740Y1578D02*
X1415Y1582D01*
D02*
X208Y574D02*
X131Y657D01*
D02*
X208Y166D02*
X208Y574D01*
D02*
X1511Y79D02*
X321Y79D01*
D02*
X321Y79D02*
X208Y166D01*
D02*
X1585Y152D02*
X1511Y79D01*
D02*
X2012Y980D02*
X2006Y487D01*
D02*
X1919Y374D02*
X1710Y374D01*
D02*
X2109Y1077D02*
X2012Y980D01*
D02*
X2006Y487D02*
X1919Y374D01*
D02*
X1710Y374D02*
X1637Y451D01*
D02*
X2809Y1077D02*
X2109Y1077D01*
D02*
X2932Y1199D02*
X2809Y1077D01*
D02*
X2928Y803D02*
X2041Y198D01*
D02*
X2928Y603D02*
X2341Y199D01*
G04 End of Copper0*
M02*