; NON-PLATED HOLES START AT T1
; THROUGH (PLATED) HOLES START AT T100
M48
INCH
T100C0.051181
T101C0.036000
T102C0.040000
%
T100
X022111Y004777
X023111Y001777
X016111Y004777
X016111Y001777
X020111Y001777
T101
X007111Y008777
X007111Y004777
X007111Y003777
X007111Y006777
X007111Y007777
X001111Y004777
X001111Y014777
X007111Y005777
X007111Y012777
X001111Y006777
X001111Y013777
X007111Y013777
X001111Y007777
X007111Y002777
X001111Y008777
X001111Y005777
X007111Y014777
X001111Y015777
X001111Y011777
X001111Y016777
X001111Y012777
X001111Y009777
X007111Y016777
X001111Y010777
X007111Y010777
X001111Y003777
X007111Y009777
X007111Y011777
X001111Y002777
X007111Y015777
T102
X027111Y017777
X027111Y020777
X029540Y012206
X029540Y010206
X027111Y018777
X027111Y015777
X029540Y008206
X027111Y016777
X027111Y019777
X029540Y006206
T00
M30
