<?xml version='1.0' encoding='UTF-8' standalone='no'?>
<!-- Created with Fritzing (http://www.fritzing.org/) -->
<svg xmlns="http://www.w3.org/2000/svg" xmlns:svg="http://www.w3.org/2000/svg" baseProfile="tiny" width="3.33333in" version="1.2"  y="0in" x="0in" height="2.22222in" viewBox="0 0 240 160">
 <g partID="57660">
  <g id="board" >
   <rect fill-opacity="0.5" width="239.424" id="boardoutline" fill="none" stroke="black"  y="0.288" stroke-width="0.5" x="0.288" height="159.424"/>
  </g>
 </g>
 <g partID="58150">
  <g transform="translate(4.4,28.3999)">
   <g id="copper0" >
    <circle cx="3.6" r="1.908" id="connector16pad" fill="none" stroke="black"  cy="10.8" stroke-width="1.224"/>
    <rect width="3.814" fill="none" stroke="black"  y="8.892" x="1.692" stroke-width="1.224" height="3.816"/>
    <circle cx="3.6" r="1.908" id="connector17pad" fill="none" stroke="black"  cy="18" stroke-width="1.224"/>
    <circle cx="3.6" r="1.908" id="connector18pad" fill="none" stroke="black"  cy="25.2" stroke-width="1.224"/>
    <circle cx="3.6" r="1.908" id="connector19pad" fill="none" stroke="black"  cy="32.4" stroke-width="1.224"/>
    <circle cx="3.6" r="1.908" id="connector20pad" fill="none" stroke="black"  cy="39.6" stroke-width="1.224"/>
    <circle cx="3.6" r="1.908" id="connector21pad" fill="none" stroke="black"  cy="46.8" stroke-width="1.224"/>
    <circle cx="3.6" r="1.908" id="connector22pad" fill="none" stroke="black"  cy="54" stroke-width="1.224"/>
    <circle cx="3.6" r="1.908" id="connector23pad" fill="none" stroke="black"  cy="61.2" stroke-width="1.224"/>
    <circle cx="3.6" r="1.908" id="connector24pad" fill="none" stroke="black"  cy="68.4" stroke-width="1.224"/>
    <circle cx="3.6" r="1.908" id="connector25pad" fill="none" stroke="black"  cy="75.6" stroke-width="1.224"/>
    <circle cx="3.6" r="1.908" id="connector26pad" fill="none" stroke="black"  cy="82.8" stroke-width="1.224"/>
    <circle cx="3.6" r="1.908" id="connector27pad" fill="none" stroke="black"  cy="90" stroke-width="1.224"/>
    <circle cx="3.6" r="1.908" id="connector28pad" fill="none" stroke="black"  cy="97.2" stroke-width="1.224"/>
    <circle cx="3.6" r="1.908" id="connector29pad" fill="none" stroke="black"  cy="104.4" stroke-width="1.224"/>
    <circle cx="3.6" r="1.908" id="connector30pad" fill="none" stroke="black"  cy="111.6" stroke-width="1.224"/>
    <circle cx="46.8" r="1.908" id="connector31pad" fill="none" stroke="black"  cy="10.8" stroke-width="1.224"/>
    <circle cx="46.8" r="1.908" id="connector32pad" fill="none" stroke="black"  cy="18" stroke-width="1.224"/>
    <circle cx="46.8" r="1.908" id="connector33pad" fill="none" stroke="black"  cy="25.2" stroke-width="1.224"/>
    <circle cx="46.8" r="1.908" id="connector34pad" fill="none" stroke="black"  cy="32.4" stroke-width="1.224"/>
    <circle cx="46.8" r="1.908" id="connector35pad" fill="none" stroke="black"  cy="39.6" stroke-width="1.224"/>
    <circle cx="46.8" r="1.908" id="connector36pad" fill="none" stroke="black"  cy="46.8" stroke-width="1.224"/>
    <circle cx="46.8" r="1.908" id="connector37pad" fill="none" stroke="black"  cy="54" stroke-width="1.224"/>
    <circle cx="46.8" r="1.908" id="connector38pad" fill="none" stroke="black"  cy="61.2" stroke-width="1.224"/>
    <circle cx="46.8" r="1.908" id="connector39pad" fill="none" stroke="black"  cy="68.4" stroke-width="1.224"/>
    <circle cx="46.8" r="1.908" id="connector40pad" fill="none" stroke="black"  cy="75.6" stroke-width="1.224"/>
    <circle cx="46.8" r="1.908" id="connector41pad" fill="none" stroke="black"  cy="82.8" stroke-width="1.224"/>
    <circle cx="46.8" r="1.908" id="connector42pad" fill="none" stroke="black"  cy="90" stroke-width="1.224"/>
    <circle cx="46.8" r="1.908" id="connector43pad" fill="none" stroke="black"  cy="97.2" stroke-width="1.224"/>
    <circle cx="46.8" r="1.908" id="connector44pad" fill="none" stroke="black"  cy="104.4" stroke-width="1.224"/>
    <circle cx="46.8" r="1.908" id="connector45pad" fill="none" stroke="black"  cy="111.6" stroke-width="1.224"/>
   </g>
  </g>
 </g>
 <g partID="59300">
  <g transform="translate(72.8,5)">
   <g id="copper0" >
    <g  stroke-width="0">
     <circle cx="122.4" r="2.052" connectorname="RTS_5V" fill="none" stroke="black" id="connector16pad" gorn="0.3.0.0.0"  cy="5.4" stroke-width="1.224"/>
     <circle cx="122.4" r="2.052" connectorname="RX_5V" fill="none" stroke="black" id="connector15pad" gorn="0.3.0.0.1"  cy="12.6" stroke-width="1.224"/>
     <circle cx="122.4" r="2.052" connectorname="TX_5V" fill="none" stroke="black" id="connector17pad" gorn="0.3.0.0.2"  cy="19.8" stroke-width="1.224"/>
     <circle cx="122.4" r="2.052" connectorname="VCC" fill="none" stroke="black" id="connector13pad" gorn="0.3.0.0.3"  cy="27" stroke-width="1.224"/>
     <circle cx="122.4" r="2.052" connectorname="CTS_5V" fill="none" stroke="black" id="connector14pad" gorn="0.3.0.0.4"  cy="34.2" stroke-width="1.224"/>
     <circle cx="122.4" r="2.052" connectorname="GND" fill="none" stroke="black" id="connector12pad" gorn="0.3.0.0.5"  cy="41.4" stroke-width="1.224"/>
    </g>
   </g>
  </g>
 </g>
 <g partID="64240">
  <g transform="translate(170.288,151.088)">
   <g transform="matrix(-1,0,0,-1,0,0)">
    <g id="copper0" >
     <circle cx="11.088" r="2.20252" connectorname="4" id="connector3pad" stroke="black" fill="none"  cy="25.488" stroke-width="0.72"/>
     <circle cx="54.288" r="2.20252" connectorname="5" id="connector4pad" stroke="black" fill="none"  cy="25.488" stroke-width="0.72"/>
     <circle cx="54.288" r="2.20252" connectorname="1" id="connector0pad" stroke="black" fill="none"  cy="3.888" stroke-width="0.72"/>
     <circle cx="3.888" r="2.20252" connectorname="3" id="connector2pad" stroke="black" fill="none"  cy="3.888" stroke-width="0.72"/>
     <circle cx="25.488" r="2.20252" connectorname="2" id="connector1pad" stroke="black" fill="none"  cy="3.888" stroke-width="0.72"/>
    </g>
   </g>
  </g>
 </g>
 <g partID="75740">
  <g transform="translate(208.37,64.1905)">
   <g id="copper0" >
    <g id="copper1" >
     <circle cx="4.32" r="2.16" id="connector1pin" fill="none" stroke="black"  cy="22.32" stroke-width="1.44"/>
     <circle cx="4.32" r="2.16" id="connector2pin" fill="none" stroke="black"  cy="36.72" stroke-width="1.44"/>
     <circle cx="4.32" r="2.16" id="connector3pin" fill="none" stroke="black"  cy="51.12" stroke-width="1.44"/>
     <g id="connector0pin" >
      <rect width="4.32" id="square" fill="none" stroke="black"  y="5.76" x="2.16" stroke-width="1.44" height="4.32"/>
      <circle cx="4.32" r="2.16" fill="none" stroke="black"  cy="7.92" stroke-width="1.44"/>
     </g>
    </g>
   </g>
  </g>
 </g>
 <g partID="87260">
  <line y2="24.7695" stroke-linecap="round" stroke="black" y1="24.6024" x1="209.694" stroke-width="1.728" x2="197.44"/>
 </g>
 <g partID="87230">
  <line y2="24.6024" stroke-linecap="round" stroke="black" y1="32.0847" x1="216.678" stroke-width="1.728" x2="209.694"/>
 </g>
 <g partID="87160">
  <line y2="32.0847" stroke-linecap="round" stroke="black" y1="68" x1="216.678" stroke-width="1.728" x2="216.678"/>
 </g>
 <g partID="87170">
  <line y2="68" stroke-linecap="round" stroke="black" y1="70.5028" x1="214.249" stroke-width="1.728" x2="216.678"/>
 </g>
 <g partID="87390">
  <line y2="17.602" stroke-linecap="round" stroke="black" y1="17.6189" x1="216.678" stroke-width="1.728" x2="197.44"/>
 </g>
 <g partID="87320">
  <line y2="17.6189" stroke-linecap="round" stroke="black" y1="24.6024" x1="224.16" stroke-width="1.728" x2="216.678"/>
 </g>
 <g partID="87360">
  <line y2="24.6024" stroke-linecap="round" stroke="black" y1="74.9835" x1="224.16" stroke-width="1.728" x2="224.16"/>
 </g>
 <g partID="87330">
  <line y2="74.9835" stroke-linecap="round" stroke="black" y1="84.9227" x1="214.27" stroke-width="1.728" x2="224.16"/>
 </g>
 <g partID="83770">
  <line y2="10.4661" stroke-linecap="round" stroke="black" y1="10.4661" x1="58.1121" stroke-width="1.728" x2="188.189"/>
 </g>
 <g partID="82570">
  <line y2="16.0024" stroke-linecap="round" stroke="black" y1="10.4661" x1="188.189" stroke-width="1.728" x2="193.63"/>
 </g>
 <g partID="82120">
  <line y2="10.4662" stroke-linecap="round" stroke="black" y1="17.3452" x1="51.233" stroke-width="1.728" x2="58.1121"/>
 </g>
 <g partID="82130">
  <line y2="17.3451" stroke-linecap="round" stroke="black" y1="37.1039" x1="51.2032" stroke-width="1.728" x2="51.2331"/>
 </g>
 <g partID="83610">
  <line y2="118.655" stroke-linecap="round" stroke="black" y1="53.6166" x1="108.767" stroke-width="1.728" x2="108.767"/>
 </g>
 <g partID="83430">
  <line y2="123.77" stroke-linecap="round" stroke="black" y1="118.655" x1="108.767" stroke-width="1.728" x2="114.094"/>
 </g>
 <g partID="82820">
  <line y2="53.6165" stroke-linecap="round" stroke="black" y1="46.1121" x1="101.888" stroke-width="1.728" x2="108.767"/>
 </g>
 <g partID="82830">
  <line y2="46.1121" stroke-linecap="round" stroke="black" y1="46.388" x1="53.296" stroke-width="1.728" x2="101.888"/>
 </g>
 <g partID="82920">
  <line y2="112.732" stroke-linecap="round" stroke="black" y1="118.655" x1="14.9617" stroke-width="1.728" x2="9.43055"/>
 </g>
 <g partID="83020">
  <line y2="118.655" stroke-linecap="round" stroke="black" y1="148.047" x1="14.9617" stroke-width="1.728" x2="14.9617"/>
 </g>
 <g partID="82990">
  <line y2="154.301" stroke-linecap="round" stroke="black" y1="154.301" x1="108.767" stroke-width="1.728" x2="23.0918"/>
 </g>
 <g partID="82960">
  <line y2="148.047" stroke-linecap="round" stroke="black" y1="154.301" x1="23.0915" stroke-width="1.728" x2="14.9618"/>
 </g>
 <g partID="82930">
  <line y2="154.301" stroke-linecap="round" stroke="black" y1="149.051" x1="114.114" stroke-width="1.728" x2="108.767"/>
 </g>
 <g partID="84090">
  <line y2="124.908" stroke-linecap="round" stroke="black" y1="89.4494" x1="144.847" stroke-width="1.728" x2="144.413"/>
 </g>
 <g partID="83990">
  <line y2="133.038" stroke-linecap="round" stroke="black" y1="133.038" x1="138.159" stroke-width="1.728" x2="123.15"/>
 </g>
 <g partID="83900">
  <line y2="89.4494" stroke-linecap="round" stroke="black" y1="82.4658" x1="151.831" stroke-width="1.728" x2="144.847"/>
 </g>
 <g partID="83850">
  <line y2="133.038" stroke-linecap="round" stroke="black" y1="124.908" x1="144.413" stroke-width="1.728" x2="138.159"/>
 </g>
 <g partID="83480">
  <line y2="127.505" stroke-linecap="round" stroke="black" y1="133.038" x1="123.15" stroke-width="1.728" x2="117.831"/>
 </g>
 <g partID="87200">
  <line y2="82.4658" stroke-linecap="round" stroke="black" y1="82.4658" x1="202.212" stroke-width="1.728" x2="151.831"/>
 </g>
 <g partID="83390">
  <line y2="82.4659" stroke-linecap="round" stroke="black" y1="73.6851" x1="211.096" stroke-width="1.728" x2="202.212"/>
 </g>
 <g partID="84230">
  <line y2="145.711" stroke-linecap="round" stroke="black" y1="102.172" x1="210.839" stroke-width="1.728" x2="146.983"/>
 </g>
 <g partID="84250">
  <line y2="145.701" stroke-linecap="round" stroke="black" y1="116.581" x1="210.845" stroke-width="1.728" x2="168.576"/>
 </g>
</svg>
